<?xml version="1.0" standalone="no"?>
<!DOCTYPE svg PUBLIC "-//W3C//DTD SVG 20010904//EN"
 "http://www.w3.org/TR/2001/REC-SVG-20010904/DTD/svg10.dtd">
<svg version="1.0" xmlns="https://www.w3.org/2000/svg"
 width="734.000000pt" height="734.000000pt" viewBox="0 0 734.000000 734.000000"
 preserveAspectRatio="xMidYMid meet">
<metadata>
Created by potrace 1.14, written by Peter Selinger 2001-2017
</metadata>
<g transform="translate(0.000000,734.000000) scale(0.100000,-0.100000)"
fill="#000000" stroke="none">
<path d="M1781 4983 c-1 -6 -9 -10 -18 -9 -10 2 -21 -2 -25 -8 -5 -8 -8 -7 -8
2 0 8 -5 10 -12 5 -16 -9 -36 -14 -65 -16 -13 0 -23 -5 -23 -10 0 -5 -7 -7
-15 -3 -8 3 -15 1 -15 -5 0 -6 -7 -8 -16 -5 -8 3 -13 2 -10 -3 6 -9 -53 -38
-67 -33 -5 1 -6 -2 -3 -7 4 -5 -10 -19 -29 -31 -32 -20 -51 -40 -22 -24 6 4 1
-4 -13 -17 -13 -13 -28 -23 -32 -22 -5 2 -7 0 -7 -5 3 -20 -2 -32 -13 -26 -7
4 -8 3 -4 -5 4 -6 2 -18 -4 -26 -6 -8 -9 -19 -5 -25 3 -5 1 -10 -5 -10 -6 0
-8 -4 -5 -10 3 -5 2 -10 -4 -10 -5 0 -8 -8 -6 -17 1 -10 -2 -28 -6 -41 -5 -13
-5 -21 0 -18 14 9 21 -20 8 -33 -8 -8 -8 -11 1 -11 7 0 12 -9 12 -19 0 -10 14
-33 30 -51 17 -18 30 -37 30 -42 0 -6 7 -7 16 -4 8 3 12 2 9 -4 -5 -8 21 -15
47 -11 3 0 5 -7 4 -17 -2 -12 -12 -17 -34 -17 -16 0 -28 -4 -25 -8 3 -5 -4
-11 -16 -14 -12 -3 -21 -10 -21 -15 0 -6 -7 -7 -16 -4 -9 4 -13 2 -8 -5 4 -6
1 -15 -7 -19 -7 -5 -14 -14 -15 -22 -2 -7 -5 -23 -8 -36 -3 -13 -1 -20 5 -17
5 4 9 2 9 -4 0 -5 9 -13 20 -16 12 -4 17 -11 13 -18 -5 -9 -3 -9 8 0 9 7 20 8
29 3 8 -5 19 -6 25 -2 5 3 2 -6 -8 -21 -9 -15 -14 -27 -11 -27 4 0 -5 -11 -20
-25 -14 -13 -27 -28 -29 -32 -1 -5 -6 -7 -10 -5 -5 1 -6 -1 -3 -6 7 -12 -41
-65 -53 -58 -5 4 -13 1 -17 -5 -4 -8 -3 -9 4 -5 7 4 12 2 12 -4 0 -6 -13 -13
-30 -16 -16 -4 -30 -10 -30 -14 0 -10 -20 -8 -39 4 -10 6 -12 5 -7 -2 11 -18
-9 -14 -33 6 -12 9 -23 27 -24 40 -1 12 -5 22 -10 22 -4 0 -6 3 -4 8 3 4 -9 8
-27 9 -26 2 -35 -3 -51 -30 -11 -17 -19 -35 -17 -39 1 -5 -2 -8 -7 -8 -5 0 -8
-11 -6 -25 1 -14 -1 -25 -5 -25 -10 0 -8 -20 3 -37 5 -8 4 -13 -3 -13 -6 0 -4
-9 5 -23 8 -13 12 -27 8 -30 -3 -4 -1 -7 6 -7 8 0 11 -6 7 -16 -3 -8 -2 -12 4
-9 6 3 13 -2 17 -12 3 -10 13 -22 20 -26 7 -5 10 -13 7 -19 -4 -7 -2 -8 4 -4
15 9 64 -23 55 -37 -4 -6 -1 -7 6 -3 7 5 21 0 31 -9 18 -17 22 -17 55 -1 19 9
39 15 43 12 4 -2 14 -1 22 4 9 5 20 4 29 -3 12 -10 13 -9 2 11 -14 26 -9 28
13 6 10 -10 16 -11 16 -3 0 8 4 8 16 -1 12 -11 15 -11 12 1 -2 8 3 13 12 11 8
-2 11 0 7 4 -11 11 -38 14 -32 4 7 -11 -22 -7 -32 5 -4 4 -3 5 4 1 6 -3 14 -2
17 3 4 5 17 8 30 7 17 -2 23 1 19 11 -4 9 0 11 13 6 16 -6 17 -4 6 9 -10 12
-9 18 3 28 8 7 21 10 29 7 8 -3 22 3 31 13 15 16 15 19 1 27 -13 7 -12 11 7
22 20 13 21 13 8 -2 -7 -10 -9 -17 -3 -17 15 0 21 23 10 43 -9 17 -7 17 14 7
19 -10 21 -10 11 0 -9 9 -9 19 -2 32 14 25 46 58 52 52 2 -3 7 5 10 16 4 18 3
19 -9 9 -12 -10 -13 -9 -8 5 3 9 10 16 16 16 5 0 6 6 2 13 -5 8 -3 8 9 -2 9
-7 14 -18 10 -24 -3 -6 -1 -7 5 -3 9 5 8 14 -4 31 -11 18 -12 25 -3 31 7 4 9
3 5 -4 -3 -6 -3 -13 2 -16 7 -4 12 16 15 61 0 7 4 10 9 7 5 -3 5 -10 2 -16 -4
-7 -2 -8 4 -4 6 4 9 12 6 20 -3 7 2 13 10 13 8 0 12 -5 9 -10 -4 -6 0 -8 10
-4 9 3 19 1 23 -5 5 -7 2 -8 -6 -3 -9 6 -11 4 -6 -4 5 -7 14 -10 22 -7 8 3 14
1 14 -5 0 -6 7 -9 15 -6 8 4 17 2 20 -3 4 -6 15 -10 26 -10 10 0 19 -3 19 -8
0 -4 9 -13 21 -20 12 -8 19 -10 16 -5 -3 5 3 15 15 22 11 7 17 8 14 3 -3 -6 0
-12 8 -15 10 -4 12 0 8 16 -5 19 -4 19 10 6 9 -7 13 -18 10 -23 -3 -5 0 -6 7
-2 8 6 9 11 2 20 -8 10 -5 18 11 32 12 10 18 14 15 8 -4 -7 0 -17 8 -24 13
-11 14 -10 8 6 -6 17 -5 17 10 6 14 -12 15 -11 8 15 -6 22 -5 30 4 30 7 0 11
-7 8 -16 -4 -14 -4 -14 6 -1 10 14 16 7 12 -13 -1 -5 3 -6 9 -2 6 4 4 15 -6
30 -15 23 -15 24 10 19 13 -2 27 0 31 6 4 6 -1 7 -11 3 -13 -5 -15 -3 -8 8 13
22 14 43 1 51 -8 5 -7 8 5 8 9 0 18 -6 21 -12 3 -7 4 -3 4 9 -1 12 -5 19 -11
16 -5 -4 -6 -1 0 8 11 17 12 89 2 83 -5 -3 -8 -1 -8 4 0 5 -11 12 -25 14 -14
3 -25 1 -25 -4 0 -5 -4 -6 -10 -3 -5 3 -10 1 -10 -5 0 -6 -4 -8 -10 -5 -5 3
-10 1 -10 -5 0 -6 -5 -8 -10 -5 -6 3 -13 -1 -16 -10 -6 -13 -8 -14 -15 -3 -7
11 -9 11 -9 0 0 -10 -10 -12 -37 -7 -21 3 -46 6 -55 6 -10 0 -18 6 -18 12 0 8
-3 7 -9 -2 -6 -9 -11 -10 -15 -2 -4 6 -12 9 -17 6 -5 -4 -4 5 2 19 7 14 15 23
20 21 4 -3 6 6 4 20 -1 14 2 28 7 31 4 3 6 9 3 14 -3 4 3 14 13 21 15 12 16
12 5 -1 -10 -13 -8 -18 9 -29 15 -10 18 -10 12 0 -11 18 -11 68 1 66 6 -1 9 6
9 15 -1 10 3 16 10 15 6 -1 10 5 10 14 -1 11 5 15 17 12 11 -3 19 0 19 6 0 7
-5 9 -12 5 -7 -5 -8 -3 -3 5 5 9 10 10 18 2 6 -6 14 -11 18 -11 14 0 19 33 8
46 -10 12 -8 13 6 8 14 -6 16 -4 10 7 -7 12 -6 12 7 1 11 -9 18 -10 23 -2 3 5
3 10 -2 10 -4 0 -1 5 7 11 12 8 9 9 -10 5 -14 -3 -19 -3 -12 0 6 3 10 10 7 14
-3 5 0 12 6 16 8 5 9 3 4 -6 -6 -9 -4 -11 4 -5 9 5 10 10 2 18 -6 6 -11 16
-11 22 0 5 5 3 10 -5 8 -13 10 -12 10 3 0 10 5 15 11 12 6 -4 8 -14 4 -22 -4
-13 -3 -14 10 -3 9 7 15 8 15 2 0 -6 8 -9 18 -7 21 3 44 -14 36 -27 -4 -6 3
-5 15 1 18 10 20 9 14 -5 -4 -12 -3 -15 5 -10 8 4 12 0 12 -10 0 -16 1 -16 14
1 12 17 14 17 23 1 5 -9 16 -19 24 -20 29 -6 49 -18 43 -27 -3 -5 -1 -9 5 -9
5 0 12 6 14 13 4 10 6 10 6 0 1 -7 10 -13 22 -13 14 0 19 -5 16 -14 -4 -11 -1
-13 10 -9 11 5 14 3 8 -6 -4 -8 2 -7 17 3 21 14 27 14 37 3 6 -8 8 -17 4 -21
-4 -4 1 -4 11 0 14 5 15 9 4 15 -10 7 -9 9 5 9 9 0 17 -4 17 -10 0 -5 5 -10
11 -10 6 0 9 7 5 15 -4 12 -1 12 22 -2 26 -17 26 -17 13 0 -12 15 -11 17 10
15 16 -2 23 2 21 10 -1 8 2 11 8 7 6 -3 8 -10 5 -15 -3 -5 0 -12 6 -16 7 -4 9
-3 5 4 -3 6 -2 13 4 17 5 3 10 1 10 -6 0 -7 3 -9 7 -5 5 4 -1 14 -12 23 -14
10 -15 14 -5 13 28 -4 46 0 66 15 18 14 18 14 -4 10 -13 -2 -20 0 -17 6 4 5
10 7 14 5 4 -3 14 6 21 19 7 13 17 22 22 19 5 -3 1 -12 -9 -19 -17 -13 -17
-14 4 -12 12 0 20 4 17 8 -2 4 4 13 13 19 17 11 17 11 1 6 -10 -3 -18 -1 -18
4 0 6 5 10 11 10 5 0 8 4 4 9 -3 5 0 13 6 17 7 4 9 3 5 -4 -3 -6 -2 -14 4 -17
6 -4 10 -3 9 2 -1 4 -1 22 0 38 1 23 3 27 11 15 8 -12 10 -10 10 11 0 14 6 31
13 38 6 8 7 11 1 8 -6 -3 -11 0 -11 8 0 8 3 12 7 10 3 -2 11 5 17 15 10 14 8
21 -8 36 -11 10 -17 24 -15 31 3 7 1 13 -5 13 -6 0 -7 5 -4 10 4 6 3 10 -2 9
-4 -1 -10 0 -13 1 -16 6 -50 5 -50 -2 0 -4 -5 -8 -11 -8 -7 0 -20 -10 -30 -22
-11 -11 -19 -18 -19 -14 0 4 -7 0 -16 -9 -10 -9 -25 -14 -36 -12 -10 3 -16 1
-13 -3 7 -11 -76 -7 -94 4 -10 6 -12 5 -7 -2 4 -8 -3 -11 -24 -9 -16 1 -30 6
-30 10 0 5 -5 5 -10 2 -6 -4 -17 -1 -25 5 -12 10 -15 10 -16 -1 0 -8 -4 -5 -9
6 -5 11 -9 14 -9 8 -1 -15 -41 -18 -41 -3 0 6 -13 10 -29 10 -17 0 -33 5 -36
11 -4 6 -13 8 -20 5 -7 -2 -24 2 -39 9 -15 8 -24 10 -21 5 3 -5 -4 -8 -15 -7
-11 1 -20 4 -20 8 0 3 -21 7 -47 8 -25 0 -52 6 -58 11 -7 5 -15 7 -18 3 -10
-9 -67 -10 -67 0 0 10 -23 4 -32 -8 -5 -6 -8 -6 -8 2 0 13 -18 12 -39 -1 -11
-7 -12 -6 -6 5 7 12 6 12 -7 1 -13 -10 -17 -10 -21 0 -4 8 -6 9 -6 1z m974
-104 c-10 -15 -25 -10 -19 6 4 8 10 12 15 9 5 -3 7 -10 4 -15z m-952 -76 c-27
-10 -11 -18 36 -18 27 0 47 4 44 9 -4 5 0 5 8 0 8 -5 17 -9 21 -9 3 0 9 -3 12
-7 3 -5 3 -6 0 -4 -3 3 -24 -6 -45 -20 -21 -13 -43 -24 -49 -24 -5 0 -10 -7
-10 -15 0 -8 -4 -14 -8 -12 -10 3 -62 -52 -62 -66 0 -5 -7 -7 -14 -4 -10 4
-13 1 -9 -9 3 -7 0 -14 -7 -14 -6 0 -8 -4 -5 -10 3 -5 -1 -10 -9 -10 -9 0 -16
-3 -16 -8 0 -4 -9 -13 -21 -20 -15 -10 -19 -10 -14 -1 6 8 4 10 -6 3 -18 -11
-79 -13 -79 -2 0 4 -7 8 -16 8 -8 0 -12 5 -9 10 3 6 1 10 -4 10 -6 0 -11 5
-11 11 0 5 5 7 12 3 7 -5 8 -3 3 7 -15 24 -12 50 7 60 10 6 16 14 13 19 -3 5
0 12 6 16 8 4 9 3 5 -4 -9 -15 -1 -15 25 -1 17 9 18 13 7 27 -7 9 -8 14 -4 10
5 -4 16 -2 24 5 13 10 14 8 8 -11 -4 -12 -4 -22 1 -22 5 0 9 10 10 21 1 12 7
27 14 33 9 8 10 8 5 -1 -4 -7 1 -9 14 -6 11 3 20 10 20 15 0 5 5 6 10 3 6 -3
10 -2 10 4 0 5 -6 12 -12 14 -10 4 -10 6 0 6 7 1 15 -6 18 -14 4 -8 11 -15 16
-15 6 0 8 6 5 13 -3 8 1 14 9 14 8 0 14 -5 14 -11 0 -6 5 -3 11 7 5 9 15 17
22 16 9 0 9 -2 0 -6z m-198 -91 c-3 -3 -11 0 -18 7 -9 10 -8 11 6 5 10 -3 15
-9 12 -12z m360 -91 c3 -5 1 -12 -5 -16 -5 -3 -10 1 -10 9 0 18 6 21 15 7z
m405 -21 c0 -5 -2 -10 -4 -10 -3 0 -8 5 -11 10 -3 6 -1 10 4 10 6 0 11 -4 11
-10z m-295 -380 c-3 -5 -11 -10 -16 -10 -6 0 -7 5 -4 10 3 6 11 10 16 10 6 0
7 -4 4 -10z m-185 -116 c0 -8 -19 -13 -24 -6 -3 5 1 9 9 9 8 0 15 -2 15 -3z
m-371 -251 c-6 -7 -15 -10 -20 -7 -13 8 -3 21 15 21 12 0 13 -4 5 -14z m-283
-126 c8 3 14 0 14 -7 0 -15 -33 -9 -36 8 -1 7 0 8 2 3 3 -6 12 -7 20 -4z"/>
<path d="M1755 4760 c-3 -6 1 -7 9 -4 18 7 21 14 7 14 -6 0 -13 -4 -16 -10z"/>
<path d="M1845 4759 c-4 -6 -5 -12 -2 -15 2 -3 7 2 10 11 7 17 1 20 -8 4z"/>
<path d="M1548 4653 c10 -4 10 -8 0 -21 -12 -14 -11 -14 9 -1 16 9 19 16 10
21 -7 4 -16 7 -22 7 -5 0 -4 -3 3 -6z"/>
<path d="M3030 4654 c-14 -7 -33 -23 -42 -35 -10 -12 -18 -17 -18 -13 0 5 -10
-6 -21 -23 -12 -18 -25 -30 -30 -27 -5 3 -9 2 -8 -3 3 -20 -2 -34 -11 -28 -6
3 -7 -1 -4 -10 4 -8 1 -22 -6 -30 -10 -12 -10 -15 1 -15 10 0 10 -3 3 -8 -6
-4 -10 -15 -8 -24 1 -10 -3 -18 -9 -18 -8 0 -8 -3 -2 -8 14 -10 19 -46 6 -37
-6 3 -9 0 -6 -8 3 -7 -6 -26 -20 -41 -14 -15 -25 -24 -25 -20 0 3 -7 1 -15 -6
-12 -10 -15 -10 -15 1 0 11 -2 11 -10 -1 -6 -10 -9 3 -7 43 2 31 -1 57 -6 57
-5 0 -4 7 3 15 10 12 10 15 0 15 -7 0 -10 6 -7 13 5 14 -47 77 -64 77 -6 0 -7
4 -4 10 4 6 -1 7 -11 3 -13 -5 -16 -2 -12 9 5 11 1 14 -17 10 -12 -2 -32 1
-43 7 -14 7 -23 8 -27 1 -3 -5 -11 -10 -16 -10 -6 0 -7 5 -3 11 4 8 1 8 -13 1
-11 -6 -37 -9 -58 -7 -21 2 -33 0 -26 -4 9 -6 8 -10 -5 -15 -10 -4 -21 -1 -27
6 -6 10 -7 9 -4 -4 5 -15 -17 -34 -36 -30 -4 1 -21 -12 -37 -28 -17 -17 -35
-28 -40 -25 -6 4 -9 1 -8 -7 2 -7 -3 -12 -10 -10 -8 1 -11 -2 -7 -8 3 -5 1
-10 -5 -10 -6 0 -9 -3 -7 -7 3 -5 -5 -17 -16 -28 -11 -11 -16 -14 -12 -6 5 10
4 12 -4 7 -6 -4 -9 -11 -6 -16 3 -5 -7 -18 -22 -31 -16 -12 -20 -19 -11 -16
15 5 16 4 6 -13 -9 -14 -14 -16 -20 -7 -7 11 -13 -21 -9 -45 0 -5 -4 -8 -10
-8 -5 0 -8 -4 -4 -9 3 -5 1 -12 -4 -16 -6 -3 -8 -12 -4 -20 3 -8 0 -15 -7 -15
-6 0 -9 -4 -6 -9 4 -5 0 -12 -6 -14 -10 -4 -10 -6 -1 -6 7 -1 10 -8 7 -16 -4
-8 -11 -12 -18 -8 -8 5 -8 3 0 -8 6 -8 10 -22 9 -31 -2 -10 1 -18 5 -18 5 0 7
-9 5 -20 -2 -11 0 -18 6 -15 5 4 9 -3 9 -14 0 -12 6 -21 13 -21 8 0 7 -4 -3
-10 -11 -7 -12 -10 -2 -10 18 0 43 -26 34 -35 -4 -5 -1 -5 6 -1 7 4 15 1 18
-9 6 -13 8 -14 15 -3 7 10 9 9 9 -5 0 -10 5 -15 10 -12 6 3 10 0 11 -7 0 -7 4
-4 9 7 6 13 9 15 9 5 1 -8 11 -21 24 -29 21 -13 21 -13 5 6 -17 18 -16 19 33
18 32 -1 54 -6 60 -15 8 -12 10 -10 6 8 -3 12 -1 20 3 17 5 -3 11 -1 15 5 8
13 25 3 21 -13 -1 -7 -1 -9 1 -5 2 4 12 4 21 1 10 -3 13 -1 7 4 -5 4 -11 15
-13 23 -3 12 0 12 14 -2 16 -16 19 -15 49 8 17 13 35 21 40 16 5 -4 5 -1 1 6
-6 10 -11 10 -21 2 -9 -8 -15 -8 -20 0 -4 6 -3 10 2 9 13 -3 47 14 59 30 6 8
18 12 28 8 14 -5 15 -3 6 12 -14 27 14 50 29 24 11 -17 11 -17 9 2 -2 15 2 19
17 18 11 -1 14 0 7 3 -6 3 -9 11 -5 17 4 7 0 6 -10 -1 -9 -8 -22 -12 -29 -9
-8 3 -6 6 5 6 10 1 16 5 13 9 -5 8 1 10 44 14 11 1 18 8 16 14 -3 9 3 9 24 1
16 -6 26 -15 23 -21 -4 -5 -1 -6 6 -2 7 5 10 15 6 23 -4 13 -3 14 10 3 8 -7
12 -16 9 -21 -3 -5 3 -6 12 -2 11 4 13 8 6 11 -7 2 -12 9 -12 14 0 6 3 8 7 5
3 -4 12 1 20 11 13 15 13 15 8 -8 -4 -17 -3 -21 3 -11 8 11 11 11 16 0 3 -8 5
-5 3 6 -2 11 3 27 11 35 14 13 15 12 10 -1 -3 -9 -2 -22 4 -30 8 -11 9 -10 4
4 -3 11 0 17 9 17 8 0 15 5 15 11 0 5 -6 7 -12 4 -7 -4 -5 0 4 8 10 8 14 18
10 23 -4 5 6 -2 23 -16 26 -22 28 -22 11 -2 -11 12 -16 25 -12 29 4 4 12 1 17
-7 8 -11 9 -6 5 20 -4 22 -3 30 3 21 6 -9 11 -10 15 -2 4 6 12 9 17 6 5 -4 9
-1 9 4 0 6 4 11 9 11 8 0 8 -21 1 -40 -1 -3 -2 -9 -1 -13 1 -5 -3 -6 -9 -2 -5
3 -10 1 -10 -5 0 -6 -4 -8 -10 -5 -5 3 -7 0 -4 -8 3 -8 -2 -22 -11 -30 -9 -9
-16 -19 -15 -22 1 -20 -1 -25 -9 -21 -5 3 -9 0 -8 -7 1 -33 -4 -48 -14 -41 -8
4 -9 -1 -4 -15 4 -13 1 -29 -7 -38 -9 -12 -9 -15 0 -9 8 5 12 -1 12 -21 0 -17
8 -34 19 -43 11 -7 17 -18 14 -23 -3 -6 -1 -7 5 -3 6 3 17 -1 25 -9 18 -17 37
-20 37 -5 0 6 5 10 11 10 6 0 9 -7 6 -15 -4 -8 -1 -17 5 -21 6 -4 8 -3 5 3 -3
5 11 18 31 28 42 21 70 26 78 13 7 -11 24 0 24 15 0 8 -3 8 -9 -1 -7 -11 -9
-11 -14 1 -6 15 9 17 30 4 6 -4 14 -3 18 3 3 5 16 10 28 10 20 -1 20 -2 5 -11
-10 -5 -18 -15 -18 -22 0 -8 3 -8 9 1 6 11 11 10 25 -3 9 -9 16 -13 16 -8 1 4
8 -3 16 -17 8 -14 13 -17 10 -7 -6 19 5 16 35 -10 13 -11 16 -11 16 2 0 8 -5
11 -10 8 -6 -3 -7 -1 -3 6 4 6 11 9 16 6 5 -3 15 4 23 16 10 13 16 16 19 8 2
-7 12 -13 21 -15 14 -2 15 1 6 18 -7 13 -7 18 -1 14 6 -3 12 -3 15 1 2 5 2 3
1 -4 -2 -7 2 -15 8 -19 6 -4 8 -3 5 3 -4 6 0 19 8 29 12 15 14 15 9 3 -3 -10
0 -20 7 -25 7 -4 10 -3 5 4 -3 6 2 16 13 22 14 7 22 7 27 -2 4 -6 3 -8 -4 -4
-6 3 -13 3 -16 -2 -2 -4 6 -8 19 -8 13 0 22 3 19 7 -2 4 1 11 7 15 7 4 9 3 6
-3 -4 -6 1 -17 10 -24 12 -10 14 -10 9 -1 -12 19 1 14 25 -10 12 -13 19 -18
16 -13 -3 6 3 11 13 11 10 0 17 -3 15 -6 -2 -3 5 -11 15 -18 15 -9 18 -9 14 1
-2 7 4 13 16 14 11 1 20 -3 20 -8 0 -6 -4 -7 -10 -4 -6 3 -7 -1 -3 -10 5 -13
7 -14 14 -3 7 11 11 10 19 -2 5 -8 10 -10 10 -4 0 5 -3 14 -8 20 -4 5 -5 8 -3
7 2 -2 10 2 18 8 7 6 13 8 13 3 0 -5 5 -2 11 6 8 12 9 9 5 -10 -3 -14 -3 -20
0 -13 3 7 11 11 17 9 7 -1 9 -1 5 1 -13 7 -9 20 8 27 8 3 13 2 10 -2 -3 -5 1
-9 9 -9 8 0 12 4 9 9 -3 4 0 16 6 25 10 16 11 16 6 1 -3 -12 -1 -15 10 -11 9
3 13 13 9 27 -5 18 -4 19 5 4 11 -17 40 -14 40 4 0 7 -5 6 -13 -1 -10 -8 -14
-7 -14 3 0 9 8 13 20 11 13 -3 17 0 13 11 -4 12 -2 12 14 4 11 -6 20 -13 20
-16 0 -3 -4 -3 -9 0 -5 3 -11 -1 -14 -9 -4 -9 -1 -12 7 -9 7 3 21 -6 30 -20 9
-15 23 -26 31 -26 8 0 15 -4 15 -9 0 -6 9 -8 21 -6 18 4 19 2 7 -12 -11 -15
-11 -16 5 -10 9 4 25 10 35 14 14 6 15 4 4 -9 -10 -13 -10 -18 -1 -24 8 -4 9
-3 5 4 -4 7 -3 12 3 12 5 0 11 -5 13 -12 3 -7 7 -5 11 6 5 12 3 15 -6 10 -6
-4 -9 -3 -4 1 4 5 18 9 32 10 20 0 24 -3 20 -20 -3 -11 -2 -14 1 -7 3 6 13 12
22 13 11 0 12 2 5 6 -21 8 -15 22 7 16 11 -3 17 -10 13 -17 -4 -6 1 -5 10 3 9
7 14 17 11 22 -3 5 0 9 6 9 6 0 8 5 4 12 -4 7 -3 8 4 4 7 -4 12 -2 12 5 0 8 4
8 15 -1 8 -7 15 -9 15 -4 0 5 7 -2 16 -15 12 -17 24 -22 45 -19 24 4 27 2 16
-11 -9 -12 -9 -13 1 -7 7 4 12 2 12 -4 0 -7 15 -3 38 10 32 19 35 20 20 3 -16
-18 -16 -19 2 -19 10 0 16 4 13 8 -2 5 7 7 21 4 15 -3 24 -1 21 5 -4 5 -10 7
-15 4 -5 -3 -12 0 -16 7 -4 7 -4 10 1 6 4 -4 15 -2 23 5 13 9 14 9 8 -1 -5 -8
-1 -11 15 -9 13 2 25 10 27 17 3 7 0 10 -7 6 -6 -4 -11 -3 -11 3 0 5 9 9 19 8
11 0 17 -5 14 -10 -3 -5 4 -4 14 2 11 6 24 7 28 3 5 -4 5 -1 1 6 -4 7 -11 10
-16 7 -5 -3 -12 0 -16 6 -4 7 -3 9 4 5 6 -3 16 2 22 11 11 17 11 17 6 1 -3
-10 -1 -18 4 -18 9 0 14 15 11 33 -1 4 8 3 18 -3 14 -7 22 -7 26 1 4 6 14 8
24 5 14 -5 13 -4 -1 8 -19 14 -25 32 -8 21 6 -3 10 -1 10 4 0 6 4 11 10 11 5
0 8 -6 6 -12 -1 -7 -1 -10 1 -6 2 4 10 6 16 4 7 -1 9 -1 4 1 -4 3 -4 10 -1 15
4 7 2 8 -4 4 -7 -4 -12 -2 -12 3 0 6 5 11 11 11 5 0 7 4 4 10 -3 6 1 7 9 4 9
-3 13 -11 9 -17 -3 -6 -1 -7 5 -3 9 5 9 13 2 27 -13 23 -7 25 15 3 14 -15 15
-13 10 16 -5 29 -4 31 10 16 9 -9 18 -16 19 -16 7 0 2 36 -6 47 -6 7 -4 14 3
19 7 4 9 3 6 -3 -4 -6 -1 -13 7 -16 20 -8 28 4 13 21 -10 13 -9 15 7 9 16 -6
17 -5 6 8 -11 13 -10 15 1 10 11 -4 13 4 11 40 -2 25 -9 45 -16 45 -7 0 -6 4
2 9 10 6 7 10 -13 15 -30 8 -65 0 -65 -15 0 -6 -4 -7 -10 -4 -5 3 -10 1 -10
-5 0 -6 -4 -8 -10 -5 -5 3 -8 0 -5 -7 6 -17 -21 -52 -34 -43 -6 3 -9 0 -5 -9
3 -9 -6 -21 -25 -32 -17 -10 -31 -22 -31 -26 0 -4 -7 -8 -15 -8 -7 0 -19 -8
-24 -17 -6 -10 -11 -14 -11 -9 0 5 -7 3 -15 -4 -8 -7 -15 -9 -15 -5 0 4 -8 1
-17 -6 -16 -13 -17 -12 -4 3 7 10 18 15 25 11 6 -3 3 3 -7 14 -14 16 -15 23
-6 29 7 4 10 3 6 -3 -4 -6 1 -13 11 -15 12 -4 18 1 18 13 0 10 -3 16 -6 14 -4
-2 -7 2 -7 10 0 10 5 11 17 5 12 -6 17 -5 17 5 0 8 -3 12 -7 10 -4 -2 -7 2 -7
8 0 7 9 14 19 14 12 1 16 -3 12 -10 -4 -7 -3 -8 1 -4 12 11 16 40 6 47 -5 3
-2 12 7 20 14 13 15 12 9 -3 -3 -9 -2 -19 2 -22 5 -3 8 8 7 25 -2 23 1 27 11
18 11 -9 12 -6 4 15 -8 20 -7 26 2 24 7 -1 11 3 10 10 -2 8 4 10 14 6 15 -6
15 -7 -1 -18 -9 -7 -16 -16 -16 -20 0 -5 8 -1 18 8 19 17 22 42 9 64 -4 6 -2
15 4 19 8 4 9 3 5 -4 -4 -7 -1 -12 9 -12 13 0 14 4 5 20 -7 14 -7 20 0 20 5 0
10 -5 10 -12 0 -6 3 -9 6 -6 3 4 1 15 -4 25 -6 11 -7 25 -1 35 6 11 4 20 -6
28 -8 7 -13 16 -10 19 4 8 2 9 -62 14 -24 2 -43 -1 -43 -6 0 -5 -6 -7 -14 -4
-7 3 -19 0 -26 -6 -10 -9 -11 -9 -6 0 5 9 2 11 -8 7 -9 -3 -14 -9 -11 -13 2
-4 -11 -15 -30 -24 -21 -10 -37 -12 -40 -7 -3 6 -15 10 -26 10 -10 0 -19 4
-19 8 0 5 -10 8 -22 7 -13 -1 -29 3 -37 9 -12 9 -13 8 -7 -2 6 -10 3 -13 -10
-11 -11 2 -25 0 -31 -4 -8 -5 -13 -3 -13 5 0 9 -3 9 -10 -2 -5 -8 -10 -11 -10
-6 0 5 -7 3 -15 -4 -8 -7 -15 -9 -15 -5 0 4 -8 1 -17 -6 -15 -12 -16 -12 -8 1
4 8 -2 5 -13 -7 -12 -12 -30 -24 -42 -28 -11 -3 -20 -11 -20 -16 0 -6 -4 -8
-9 -4 -6 3 -15 -4 -21 -15 -6 -11 -15 -20 -21 -20 -6 0 -7 5 -3 12 4 7 3 8 -4
4 -6 -4 -9 -13 -5 -21 4 -11 1 -13 -11 -9 -9 4 -16 2 -14 -4 2 -5 -8 -20 -22
-34 -14 -13 -26 -30 -28 -38 -2 -8 -15 -25 -29 -38 -14 -12 -23 -26 -20 -29 8
-7 -93 -103 -108 -103 -7 0 -16 -7 -19 -16 -4 -11 -14 -15 -31 -11 -14 2 -28
0 -31 -4 -3 -5 -12 -9 -20 -9 -9 0 -12 5 -8 12 4 6 3 8 -4 5 -5 -4 -17 -4 -26
-1 -13 5 -14 9 -5 20 6 8 15 12 19 9 4 -2 7 8 6 23 -1 23 3 28 29 30 17 2 34
10 38 18 5 8 13 11 19 8 7 -5 8 -2 4 5 -6 9 -12 8 -26 -4 -12 -11 -20 -13 -25
-5 -4 6 -1 9 7 8 7 -2 12 2 11 9 -3 15 33 9 56 -9 14 -12 15 -11 2 4 -12 16
-10 19 10 27 13 5 18 10 12 10 -7 1 -13 6 -13 11 0 7 7 7 20 0 16 -8 20 -8 18
2 -2 7 2 12 8 11 6 -1 11 5 11 13 0 11 -4 11 -19 -3 -11 -9 -18 -11 -18 -5 0
7 5 12 11 12 5 0 7 5 3 12 -4 7 -3 8 4 4 6 -4 17 2 24 13 12 19 12 19 30 -1
10 -12 18 -17 18 -11 0 5 -3 13 -7 17 -11 10 -12 37 -2 30 5 -3 7 -10 4 -15
-4 -5 -1 -9 6 -9 6 0 9 8 6 19 -3 12 1 18 12 17 9 0 15 5 13 12 -2 10 2 10 19
2 11 -7 23 -9 27 -6 3 3 0 6 -6 6 -7 0 -12 5 -12 11 0 6 6 9 14 6 10 -4 13 1
11 19 -2 19 1 24 13 19 12 -4 13 -3 2 10 -10 12 -10 15 0 15 10 0 10 3 1 14
-9 11 -9 15 1 19 11 4 10 6 0 6 -8 1 -10 6 -6 14 4 6 4 9 -1 5 -4 -4 -14 -3
-22 3 -17 15 -123 20 -123 7 0 -6 -8 -4 -17 3 -9 8 -14 9 -10 3 8 -14 -20 -27
-35 -17 -6 3 -8 1 -4 -5 3 -6 -3 -13 -14 -17 -11 -4 -18 -11 -15 -16 4 -5 0
-9 -8 -9 -8 0 -18 -7 -21 -16 -4 -10 -14 -14 -26 -11 -11 3 -18 0 -17 -5 3
-16 -31 -18 -37 -1 -4 9 -2 12 7 7 6 -4 4 2 -5 13 -10 11 -18 25 -18 32 0 7
-4 9 -10 6 -5 -3 -10 -1 -10 5 0 6 -4 8 -10 5 -5 -3 -10 -2 -10 3 0 5 -18 9
-40 8 -22 0 -40 -5 -40 -10 0 -5 -7 -3 -15 4 -10 9 -15 9 -15 1 0 -6 -5 -11
-11 -11 -14 0 -33 -20 -42 -43 -4 -10 -11 -15 -17 -12 -6 3 -7 -1 -4 -9 3 -9
1 -16 -6 -16 -6 0 -9 -4 -6 -9 3 -5 -1 -12 -9 -15 -8 -3 -14 -9 -14 -13 4 -16
-14 -43 -24 -36 -6 3 -7 1 -3 -6 9 -14 -32 -74 -45 -66 -5 4 -6 0 -3 -8 3 -8
-6 -23 -20 -34 -14 -11 -24 -22 -22 -24 2 -2 -7 -14 -20 -27 -13 -12 -24 -19
-24 -15 0 4 -7 -3 -16 -15 -8 -12 -20 -20 -25 -17 -5 4 -9 -1 -9 -9 0 -9 -4
-16 -9 -16 -6 0 -8 10 -6 21 3 12 1 18 -3 15 -4 -4 -7 -11 -8 -14 -3 -22 -18
-40 -32 -38 -22 4 -26 22 -6 30 15 6 15 4 3 -11 -13 -16 -12 -17 3 -5 18 14
13 46 -6 36 -6 -3 -2 3 9 13 21 18 40 52 36 66 -1 4 8 3 19 -3 25 -13 26 -7 3
16 -17 17 -17 18 1 11 14 -6 17 -4 12 9 -5 14 -4 15 9 4 14 -11 14 -10 6 13
-9 24 -8 25 17 21 24 -5 25 -4 10 8 -13 10 -15 17 -7 28 9 12 10 11 5 -4 -7
-19 -6 -19 14 -1 11 10 20 23 20 29 0 6 -5 4 -10 -4 -6 -9 -10 -10 -10 -3 0 6
5 15 10 18 6 4 8 10 5 15 -3 5 -1 11 4 14 5 4 13 1 17 -5 4 -8 3 -9 -4 -5 -8
5 -10 1 -5 -9 4 -13 8 -14 14 -4 4 7 3 24 -3 38 -5 14 -6 22 -2 18 13 -13 33
26 23 45 -5 10 -6 18 -2 18 4 0 1 5 -7 10 -11 7 -12 10 -2 10 10 0 9 4 -2 16
-9 8 -14 20 -10 25 3 5 2 9 -3 8 -19 -3 -34 2 -29 10 3 4 -7 6 -22 4 -15 -2
-33 -5 -39 -5 -7 -1 -13 -8 -13 -17 0 -14 -2 -14 -10 -1 -8 13 -10 13 -10 -1
0 -9 -11 -24 -25 -33 -30 -20 -39 -20 -31 -1 3 8 0 15 -7 15 -7 0 -4 5 6 11
14 8 16 14 6 25 -6 7 -9 21 -5 29 3 9 2 13 -4 10 -6 -3 -10 -2 -10 3 0 11 -47
30 -75 29 -11 0 -31 -6 -45 -13z m-471 -304 c-6 -4 -9 -12 -5 -18 3 -6 0 -13
-6 -15 -7 -3 -4 -6 7 -6 17 -1 17 -3 5 -11 -8 -5 -10 -10 -4 -10 18 0 34 -46
21 -59 -6 -6 -8 -11 -3 -11 4 0 1 -7 -8 -15 -8 -8 -19 -15 -25 -15 -6 0 -11
-4 -11 -9 0 -10 -39 -27 -54 -22 -5 1 -13 -4 -17 -11 -6 -9 -9 -9 -9 -1 0 6
-8 9 -18 6 -12 -3 -22 3 -29 19 -11 25 -7 48 9 48 7 0 7 -5 -1 -13 -8 -10 -7
-14 4 -14 8 0 13 3 10 5 -3 3 1 12 8 20 7 10 8 13 1 9 -7 -4 -17 0 -24 8 -11
13 -10 14 5 9 11 -5 16 -4 12 3 -4 5 0 19 8 29 15 18 15 18 9 -1 -5 -16 -4
-17 4 -6 7 9 7 21 2 31 -8 14 -5 16 17 12 18 -3 24 -1 19 7 -9 13 12 43 24 36
4 -3 13 2 20 10 10 12 16 13 27 4 10 -9 11 -14 2 -19z m1833 -21 c-2 -8 -8
-16 -13 -17 -5 -2 -6 -9 -2 -15 4 -6 0 -8 -10 -4 -11 4 -14 2 -11 -8 3 -7 -4
-23 -15 -34 -12 -12 -22 -24 -23 -28 -2 -5 -6 -7 -10 -5 -5 1 -8 -2 -8 -6 0
-34 -87 -80 -110 -59 -10 9 -11 9 -6 0 12 -22 -8 -14 -22 8 -11 17 -11 20 5
17 10 -2 18 2 18 7 0 6 7 21 14 34 11 20 11 25 0 33 -11 8 -10 9 4 4 15 -5 22
5 18 27 -1 5 3 6 8 3 5 -4 8 -15 6 -26 -2 -11 -1 -22 3 -24 4 -3 9 7 10 20 1
14 9 35 18 47 16 22 16 22 10 -5 -3 -15 -2 -29 3 -32 5 -3 8 2 7 12 0 10 5 16
14 14 12 -3 13 -1 3 9 -18 18 -16 25 9 26 18 2 19 0 8 -7 -11 -7 -10 -9 8 -7
13 1 21 6 18 13 -7 17 3 24 28 20 12 -2 20 -10 18 -17z m-815 -44 c5 -4 2 -5
-6 0 -11 6 -13 4 -8 -9 4 -9 3 -14 -2 -11 -5 3 -12 -3 -16 -14 -3 -11 -13 -23
-23 -27 -21 -10 -55 -13 -46 -5 5 6 10 7 35 10 8 1 8 5 -1 16 -10 12 -8 13 10
10 14 -3 20 0 17 8 -3 7 -10 11 -16 9 -7 -1 -10 2 -6 7 3 6 13 7 22 4 10 -4
14 -2 10 4 -8 13 19 11 30 -2z m277 -17 c-9 -14 -23 2 -17 18 4 12 8 13 14 3
4 -7 5 -17 3 -21z m326 -63 c-5 -7 -9 -14 -7 -16 1 -2 0 -3 -2 -1 -11 7 -7 29
5 29 9 0 11 -4 4 -12z m-695 -7 c5 4 5 1 1 -6 -6 -10 -11 -10 -22 -1 -8 6 -14
14 -14 16 0 3 6 0 13 -6 8 -6 18 -7 22 -3z m244 -34 c-6 -8 -15 -12 -18 -8 -3
4 0 9 7 11 6 3 9 10 6 15 -4 7 -2 8 5 4 9 -6 9 -11 0 -22z m928 -146 c-3 -8
-6 -5 -6 6 -1 11 2 17 5 13 3 -3 4 -12 1 -19z m-1372 -7 c3 -5 2 -12 -3 -15
-5 -3 -9 1 -9 9 0 17 3 19 12 6z m-25 -14 c0 -2 -9 -12 -20 -22 -24 -21 -27
-14 -4 9 15 15 24 20 24 13z m-720 -42 c-7 -8 -16 -12 -21 -9 -16 9 -10 20 12
21 17 2 18 -1 9 -12z"/>
<path d="M2532 4358 c-7 -7 -12 -16 -12 -21 0 -5 7 -1 16 8 9 9 14 18 12 20
-2 3 -10 -1 -16 -7z"/>
<path d="M2496 4342 c-2 -4 -1 -14 4 -22 7 -11 9 -9 7 8 -1 24 -3 26 -11 14z"/>
<path d="M4350 4335 c0 -7 30 -13 34 -7 3 4 -4 9 -15 9 -10 1 -19 0 -19 -2z"/>
<path d="M4216 4213 c-6 -14 -5 -15 5 -6 7 7 10 15 7 18 -3 3 -9 -2 -12 -12z"/>
<path d="M1995 4620 c3 -5 8 -10 11 -10 2 0 4 5 4 10 0 6 -5 10 -11 10 -5 0
-7 -4 -4 -10z"/>
<path d="M1906 4551 c-4 -5 -2 -12 3 -15 5 -4 12 -2 15 3 4 5 2 12 -3 15 -5 4
-12 2 -15 -3z"/>
<path d="M1885 4519 c-4 -6 -5 -12 -2 -15 2 -3 7 2 10 11 7 17 1 20 -8 4z"/>
<path d="M4015 4379 c-11 -16 -1 -19 13 -3 7 8 8 14 3 14 -5 0 -13 -5 -16 -11z"/>
<path d="M3936 4341 c-4 -5 -2 -12 3 -15 5 -4 12 -2 15 3 4 5 2 12 -3 15 -5 4
-12 2 -15 -3z"/>
<path d="M3004 4249 c-8 -14 14 -19 25 -6 8 10 7 14 -5 14 -8 0 -17 -4 -20 -8z"/>
<path d="M3226 4232 c-3 -5 1 -9 9 -9 8 0 12 4 9 9 -3 4 -7 8 -9 8 -2 0 -6 -4
-9 -8z"/>
<path d="M1420 4216 c0 -2 8 -10 18 -17 15 -13 16 -12 3 4 -13 16 -21 21 -21
13z"/>
<path d="M3210 4195 c-14 -8 -20 -14 -14 -15 5 0 19 7 30 15 24 18 16 19 -16
0z"/>
<path d="M3755 4190 c3 -5 8 -10 11 -10 2 0 4 5 4 10 0 6 -5 10 -11 10 -5 0
-7 -4 -4 -10z"/>
<path d="M1967 4124 c-3 -5 1 -15 9 -22 16 -14 18 -5 5 17 -5 7 -11 9 -14 5z"/>
<path d="M1790 4106 c0 -2 7 -7 16 -10 8 -3 12 -2 9 4 -6 10 -25 14 -25 6z"/>
<path d="M2655 4061 c-3 -5 -2 -12 3 -15 5 -3 9 1 9 9 0 17 -3 19 -12 6z"/>
<path d="M4630 3996 c0 -2 8 -10 18 -17 15 -13 16 -12 3 4 -13 16 -21 21 -21
13z"/>
<path d="M1593 3978 c-23 -29 -23 -36 -2 -31 16 4 17 8 7 14 -12 8 -4 13 15
10 5 -1 6 3 2 9 -8 13 -10 13 -22 -2z"/>
<path d="M4264 3949 c-3 -6 -3 -13 0 -16 3 -4 6 -1 6 5 0 6 7 9 15 6 8 -4 15
-4 15 -1 0 11 -30 16 -36 6z"/>
<path d="M2455 3929 c-4 -6 -5 -12 -2 -15 2 -3 7 2 10 11 7 17 1 20 -8 4z"/>
<path d="M3133 3923 c-3 -7 -9 -10 -14 -7 -15 9 -10 -3 8 -17 11 -10 14 -10 9
-1 -6 11 4 16 26 14 3 -1 8 4 11 11 3 8 -3 13 -15 13 -11 0 -22 -6 -25 -13z"/>
<path d="M3402 3918 c-7 -7 -12 -16 -12 -21 0 -5 7 -1 16 8 9 9 14 18 12 20
-2 3 -10 -1 -16 -7z"/>
<path d="M2355 3910 c3 -5 8 -10 11 -10 2 0 4 5 4 10 0 6 -5 10 -11 10 -5 0
-7 -4 -4 -10z"/>
<path d="M2383 3905 c0 -8 4 -12 9 -9 5 3 6 10 3 15 -9 13 -12 11 -12 -6z"/>
<path d="M1465 3821 c-3 -6 3 -9 14 -8 11 0 17 5 15 9 -7 11 -22 10 -29 -1z"/>
<path d="M3285 3819 c-4 -6 -13 -8 -21 -5 -8 3 -14 1 -14 -4 0 -5 -7 -7 -15
-4 -9 4 -15 0 -15 -7 0 -12 -2 -12 -9 0 -6 9 -11 10 -15 2 -4 -6 -12 -9 -17
-6 -5 4 -9 1 -9 -6 0 -8 -4 -8 -12 -1 -17 13 -63 -22 -52 -39 4 -8 3 -9 -4 -5
-17 10 -15 -1 4 -23 10 -11 24 -17 32 -13 11 4 13 2 7 -8 -6 -10 -4 -11 6 -4
23 14 38 13 32 -2 -3 -8 -13 -14 -22 -15 -10 0 -11 -2 -3 -6 13 -5 -15 -53
-52 -85 -10 -10 -15 -18 -10 -18 5 0 2 -6 -7 -13 -9 -7 -16 -21 -16 -32 0 -22
21 -48 31 -38 3 4 6 -2 6 -12 0 -18 1 -18 16 1 8 10 13 14 10 8 -3 -6 4 -16
14 -24 10 -8 17 -17 14 -22 -3 -4 2 -8 11 -8 9 0 14 -4 11 -9 -3 -5 4 -11 15
-14 13 -4 18 -10 14 -17 -5 -9 0 -8 16 1 21 11 22 10 12 -3 -10 -12 -10 -15 2
-15 8 0 15 5 15 10 0 5 7 7 15 3 8 -3 15 -1 15 4 0 6 5 10 11 10 8 0 7 -5 -1
-15 -11 -13 -11 -18 0 -28 10 -10 12 -8 6 7 -5 15 -2 17 19 12 15 -4 25 -2 25
4 0 6 -4 9 -9 5 -5 -3 -13 0 -17 6 -4 7 -3 9 4 5 5 -3 13 0 15 6 4 10 6 10 6
1 1 -16 31 -17 31 -2 0 5 -4 7 -10 4 -6 -4 -7 1 -3 11 5 15 7 15 15 0 5 -9 14
-16 21 -16 8 0 8 3 2 8 -12 8 -14 31 -3 35 3 1 10 -2 15 -7 5 -5 2 -6 -6 -1
-10 5 -12 4 -7 -4 10 -16 29 -2 22 16 -4 10 -2 13 8 10 15 -6 16 9 2 32 -7 10
-6 12 4 6 8 -5 11 -3 8 6 -3 8 -1 22 4 32 7 13 5 17 -9 17 -15 0 -16 2 -3 10
10 6 11 10 3 10 -7 0 -13 9 -13 20 0 11 -4 20 -10 20 -5 0 -10 7 -10 15 0 8
-4 15 -9 15 -5 0 -17 7 -25 16 -9 9 -35 16 -60 17 -37 1 -41 3 -28 13 9 7 24
10 34 9 10 -2 18 1 18 7 0 5 -7 8 -15 5 -8 -4 -17 -2 -20 3 -4 6 2 10 12 10
15 0 16 2 3 10 -14 9 -7 15 14 11 5 -1 4 5 -4 13 -7 9 -8 16 -3 16 5 0 10 7
10 14 0 8 -3 14 -6 14 -14 -3 -40 15 -35 23 3 5 3 9 0 9 -3 0 -8 -5 -11 -11z
m18 -241 c-5 -22 -5 -22 9 -5 13 17 15 17 27 3 16 -20 20 -58 7 -68 -10 -6
-36 14 -36 29 0 5 -10 13 -22 18 -20 9 -25 34 -5 28 4 -2 7 2 7 7 0 6 4 10 9
10 5 0 7 -10 4 -22z"/>
<path d="M4006 3778 c5 -7 -28 -13 -51 -8 -5 1 -7 -2 -3 -6 10 -10 -29 -37
-42 -29 -5 3 -7 0 -4 -9 3 -9 -2 -17 -14 -20 -11 -4 -23 -14 -26 -22 -3 -9
-11 -12 -18 -8 -7 4 -10 4 -6 -1 10 -11 -42 -76 -55 -68 -6 4 -7 1 -2 -7 5 -8
2 -18 -9 -26 -10 -7 -17 -16 -18 -21 0 -4 -4 -7 -9 -6 -5 2 -8 0 -8 -5 3 -20
-2 -33 -11 -27 -6 4 -10 3 -9 -2 5 -21 -52 -117 -64 -108 -4 3 -5 2 -2 -1 2
-4 -1 -16 -7 -28 -7 -11 -12 -25 -13 -29 0 -4 -7 -12 -15 -17 -8 -5 -10 -10
-5 -10 6 0 2 -5 -8 -11 -9 -6 -15 -14 -12 -20 4 -5 1 -9 -5 -9 -6 0 -9 -4 -6
-9 3 -5 -2 -19 -12 -32 -10 -13 -24 -37 -32 -54 -8 -16 -21 -34 -28 -38 -7 -5
-10 -12 -7 -16 2 -5 -2 -14 -10 -21 -8 -7 -15 -19 -15 -26 0 -8 -4 -14 -10
-14 -5 0 -10 -7 -10 -15 0 -8 -4 -15 -10 -15 -5 0 -9 -6 -7 -12 1 -7 -5 -12
-13 -10 -8 2 -12 0 -8 -3 10 -10 -11 -47 -22 -40 -6 3 -7 -1 -4 -9 4 -11 0
-16 -12 -16 -9 0 -14 -3 -11 -6 9 -9 -83 -95 -94 -89 -5 4 -9 1 -9 -4 0 -6 -5
-11 -11 -11 -5 0 -7 5 -3 12 5 7 3 8 -7 2 -42 -26 -118 4 -119 47 0 9 -7 22
-15 29 -8 7 -13 15 -10 19 2 4 -6 7 -18 7 -22 -1 -57 -31 -57 -48 0 -5 -5 -6
-12 -2 -6 4 -8 3 -5 -3 3 -5 0 -21 -8 -36 -7 -14 -11 -28 -8 -31 3 -3 0 -13
-8 -23 -8 -9 -9 -14 -3 -10 7 4 11 -5 11 -23 0 -18 -4 -27 -11 -22 -6 3 -3 -7
8 -22 10 -16 14 -26 8 -22 -6 3 -5 -4 1 -19 7 -14 16 -25 20 -25 5 0 6 -4 3
-9 -3 -5 8 -24 24 -42 16 -19 30 -38 30 -42 0 -5 4 -6 9 -2 6 3 14 -3 20 -12
5 -10 13 -18 18 -18 4 0 7 -4 5 -9 -2 -5 3 -4 12 3 11 9 16 9 22 0 4 -8 3 -9
-4 -5 -7 4 -12 2 -12 -3 0 -14 17 -14 26 0 4 8 9 7 14 -2 7 -10 11 -10 24 0
14 12 20 8 17 -11 -1 -13 44 2 55 17 9 12 13 13 16 4 3 -9 12 -5 28 11 16 16
21 18 17 7 -8 -22 2 -22 20 1 8 9 11 11 7 3 -4 -9 -2 -12 7 -9 8 3 14 10 14
16 0 5 4 14 9 19 5 5 6 3 2 -4 -4 -7 -2 -13 3 -13 6 0 11 7 11 16 0 8 5 12 10
9 6 -4 8 -11 5 -16 -4 -5 -2 -9 3 -9 6 0 13 7 16 16 3 8 11 12 17 8 8 -4 9 -3
5 5 -4 6 -12 9 -17 6 -5 -4 -9 1 -9 9 0 15 19 18 30 5 3 -4 12 0 20 9 13 14
13 15 -1 10 -10 -4 -15 0 -15 12 0 16 2 17 25 2 l24 -17 -18 28 c-17 26 -17
27 0 20 13 -4 16 -3 11 5 -5 8 -2 10 9 6 11 -5 14 -2 8 12 -5 12 -3 15 6 9 10
-6 11 -2 6 16 -3 13 -3 20 2 14 10 -13 33 -18 34 -7 0 4 2 15 4 25 2 11 -1 15
-8 10 -7 -4 -6 1 2 10 18 22 32 22 24 0 -3 -10 -3 -15 1 -12 4 4 9 19 12 35 3
22 2 25 -6 14 -5 -8 -10 -10 -10 -5 0 11 29 40 43 42 5 1 12 5 15 9 4 4 2 5
-3 1 -6 -3 -17 -2 -25 4 -12 7 -11 9 4 9 11 0 16 3 12 7 -3 4 4 13 16 20 l23
14 -24 -7 c-16 -4 -21 -3 -17 5 4 6 15 11 24 12 11 0 13 2 4 6 -10 4 -9 9 5
20 10 8 13 12 6 9 -7 -4 -9 1 -6 15 3 11 12 23 19 26 7 2 11 14 9 25 -3 11 -2
18 2 15 3 -4 12 1 18 10 11 15 12 14 11 -8 -1 -15 -7 -23 -16 -21 -11 1 -9 -2
3 -12 16 -12 17 -18 7 -36 -7 -13 -8 -20 -3 -17 6 4 9 -24 9 -64 -1 -39 2 -73
6 -75 4 -3 5 -13 3 -24 -3 -13 0 -18 7 -14 7 5 9 0 6 -14 -4 -12 -2 -22 4 -22
5 0 6 -10 3 -21 -5 -13 -3 -19 3 -15 5 3 12 -3 15 -14 3 -13 1 -18 -6 -13 -8
4 -8 2 0 -9 7 -8 9 -19 5 -23 -4 -5 -1 -5 6 -1 7 4 12 1 12 -8 0 -9 5 -16 11
-16 5 0 7 -4 4 -10 -3 -5 1 -10 9 -10 8 0 24 -14 36 -30 12 -17 31 -35 43 -41
19 -9 19 -8 -3 13 -14 12 -21 20 -15 17 5 -4 18 -5 28 -4 10 2 14 -1 10 -8 -4
-7 0 -8 11 -4 10 4 20 7 22 7 3 0 3 4 -1 9 -3 5 0 13 6 17 7 4 9 3 5 -4 -3 -6
-1 -14 6 -18 7 -4 10 -3 5 1 -4 5 0 20 10 34 13 21 13 24 1 13 -13 -10 -15 -7
-14 25 1 21 5 44 10 52 6 9 5 12 -1 8 -16 -10 -10 26 7 41 13 12 12 13 -5 7
-16 -5 -18 -4 -7 6 6 7 12 17 12 22 0 4 -6 5 -12 2 -7 -4 -5 0 5 8 20 16 23
32 5 21 -10 -6 -10 -5 -1 8 7 8 9 19 5 24 -4 4 0 3 9 -4 13 -10 15 -8 14 8 -1
11 -5 23 -10 27 -4 5 -5 2 0 -6 5 -9 4 -12 -3 -7 -15 9 -15 11 5 27 9 8 14 9
10 3 -3 -6 0 -11 8 -11 12 0 12 3 2 16 -6 9 -16 20 -22 24 -6 5 -3 7 8 3 14
-4 16 -1 13 18 -4 20 -1 23 17 18 21 -5 21 -5 5 12 -21 20 -24 31 -5 19 20
-13 34 -12 34 3 0 10 -4 11 -13 3 -10 -8 -13 -6 -11 9 0 10 8 19 16 18 18 -1
21 21 8 47 -8 17 -6 17 15 6 22 -11 22 -11 8 6 -14 17 -13 17 10 11 22 -6 23
-6 6 5 -18 11 -18 12 5 30 20 16 21 18 4 13 -16 -5 -17 -4 -5 5 8 6 11 11 6
11 -5 0 -3 6 4 14 6 8 17 13 24 10 9 -4 13 3 11 19 -3 21 0 24 19 19 19 -5 20
-4 6 12 -12 16 -12 19 3 28 10 5 14 14 11 20 -4 7 -2 8 5 4 6 -4 9 -11 6 -16
-7 -11 22 -7 32 5 4 4 3 5 -3 2 -7 -4 -14 -1 -17 7 -7 17 26 49 38 39 4 -5 5
0 2 10 -4 11 -3 16 3 12 6 -3 10 2 11 12 0 10 3 13 5 6 3 -7 0 -22 -7 -35 -8
-13 -12 -27 -11 -31 1 -5 -3 -5 -9 -1 -7 4 -10 2 -7 -7 3 -8 -1 -26 -8 -40 -7
-15 -10 -30 -6 -34 4 -5 -2 -5 -12 -1 -16 5 -17 4 -6 -9 11 -13 10 -18 -6 -31
-10 -9 -13 -13 -6 -9 6 3 12 1 12 -4 0 -6 -5 -11 -11 -11 -5 0 -8 -4 -5 -9 3
-5 0 -11 -8 -14 -10 -4 -13 -18 -10 -45 2 -27 -1 -44 -11 -52 -12 -10 -13 -16
-4 -26 7 -9 8 -18 2 -26 -5 -7 -9 -32 -8 -55 1 -29 -1 -40 -9 -36 -8 5 -8 3
-1 -8 6 -8 10 -40 10 -71 0 -32 2 -58 5 -58 3 0 6 -8 7 -17 3 -48 8 -73 16
-73 5 0 7 -7 3 -15 -3 -8 0 -14 6 -12 5 1 12 -7 14 -18 1 -11 8 -21 13 -23 6
-2 11 -8 11 -13 0 -6 -5 -7 -12 -3 -7 4 -8 3 -4 -5 4 -6 11 -9 16 -6 5 3 14
-4 20 -15 6 -11 18 -20 26 -20 8 0 13 -4 10 -8 -2 -4 4 -14 16 -21 11 -7 17
-8 14 -2 -4 7 -1 8 8 5 9 -3 13 -11 9 -17 -4 -6 1 -8 14 -5 25 7 56 -9 47 -24
-4 -7 -2 -8 5 -4 6 4 9 12 6 17 -4 5 -2 9 4 9 5 0 12 -6 14 -12 4 -10 6 -10 6
0 1 10 4 10 15 0 8 -7 11 -17 8 -22 -3 -5 0 -6 7 -2 6 4 9 12 6 17 -4 5 -1 9
4 9 6 0 10 6 8 12 -1 8 13 13 45 13 25 0 44 3 42 7 -2 4 0 9 5 12 5 3 7 15 4
26 -3 11 -1 20 4 20 5 0 9 9 9 20 0 11 -4 20 -9 20 -4 0 -5 5 -1 12 4 6 3 8
-4 4 -6 -3 -17 1 -25 9 -9 8 -21 15 -27 15 -6 0 -8 4 -5 10 3 6 -1 7 -9 4 -11
-4 -16 0 -16 11 0 9 -4 14 -8 11 -9 -5 -29 27 -34 54 -2 8 -7 18 -13 23 -6 4
-4 11 5 17 13 8 12 10 -3 10 -10 0 -15 5 -12 10 3 6 0 10 -7 10 -10 0 -10 2 1
9 11 7 11 9 0 13 -12 5 -12 9 -1 28 8 12 9 19 3 15 -12 -7 -12 -7 -15 52 -1
27 2 40 8 36 6 -4 3 3 -7 14 -12 14 -15 23 -7 28 5 3 8 10 5 15 -3 4 1 10 8
13 11 4 16 52 7 52 -1 0 -3 13 -4 28 -2 20 1 26 10 23 17 -7 28 10 13 20 -8 5
-9 3 -4 -6 5 -8 4 -11 -3 -6 -6 4 -9 13 -6 21 4 8 10 13 14 10 5 -3 12 -1 15
5 4 6 1 9 -6 8 -7 -2 -14 7 -15 19 -1 20 1 21 20 11 21 -11 21 -10 3 10 -12
13 -15 22 -7 27 5 3 7 11 4 17 -5 7 -2 8 6 3 10 -6 12 -3 8 13 -4 14 -2 20 5
15 6 -4 8 0 4 10 -5 13 -1 17 16 17 16 0 19 3 8 9 -12 7 -12 13 0 40 8 17 18
31 22 31 5 0 5 -4 2 -10 -3 -6 1 -7 10 -4 13 5 13 9 3 18 -7 6 -12 10 -9 9 2
-1 10 5 18 13 8 8 19 11 25 8 7 -4 8 -2 4 5 -4 6 -11 9 -16 6 -5 -3 -11 -1
-14 4 -4 5 5 8 18 7 18 -2 23 1 18 12 -3 9 -1 13 5 9 6 -4 17 1 24 11 13 15
12 16 -3 3 -11 -8 -18 -9 -18 -3 0 6 5 14 10 17 6 4 8 11 5 16 -3 5 1 6 9 3 9
-3 16 -14 17 -23 0 -10 2 -12 6 -3 3 7 -1 20 -9 29 -11 14 -11 16 1 8 11 -6
13 -4 8 8 -4 11 -2 14 8 11 8 -3 11 -13 8 -22 -4 -14 -3 -15 5 -2 8 10 8 18 0
27 -7 9 -5 17 6 28 9 9 16 14 16 10 0 -4 7 1 16 9 18 18 39 22 28 4 -4 -7 -3
-8 4 -4 6 4 8 14 5 24 -6 15 -5 16 13 2 15 -11 16 -11 7 0 -19 21 -16 34 5 19
15 -12 16 -12 6 1 -6 8 -14 23 -18 34 -5 13 -2 17 9 12 12 -4 13 -2 2 14 -6
11 -15 20 -19 20 -4 0 -5 6 -2 13 2 7 -3 13 -13 14 -10 1 -30 4 -45 7 -15 2
-30 1 -33 -4 -3 -5 -14 -7 -25 -5 -11 2 -20 -1 -20 -7 0 -6 -3 -8 -6 -5 -4 3
-15 2 -26 -4 -11 -6 -32 -13 -46 -15 -15 -3 -30 -10 -33 -16 -4 -6 -12 -7 -19
-3 -8 5 -11 4 -6 -3 3 -6 -6 -13 -24 -17 -16 -4 -30 -10 -30 -13 0 -11 -52
-32 -63 -25 -6 3 -8 2 -5 -3 3 -5 0 -15 -8 -22 -8 -7 -14 -9 -14 -5 0 4 -5 0
-11 -9 -6 -11 -16 -15 -27 -11 -9 3 -14 3 -10 -2 8 -8 -44 -55 -61 -55 -5 0
-15 -9 -21 -20 -6 -11 -15 -18 -19 -15 -5 3 -12 -2 -15 -11 -3 -8 -11 -12 -17
-8 -8 4 -9 3 -5 -5 4 -7 -2 -15 -16 -20 -13 -6 -19 -10 -15 -10 5 -1 1 -8 -7
-17 -9 -8 -21 -12 -27 -8 -8 4 -9 3 -5 -4 4 -7 2 -12 -5 -12 -7 0 -10 -3 -6
-6 8 -8 -32 -46 -43 -39 -5 3 -7 -4 -5 -15 2 -11 1 -19 -3 -17 -4 2 -15 -4
-24 -15 -10 -10 -16 -18 -13 -18 3 0 -3 -10 -15 -22 -11 -12 -20 -26 -20 -30
0 -5 -4 -6 -10 -3 -5 3 -10 -1 -10 -9 0 -9 -4 -16 -8 -16 -5 0 -9 7 -9 15 0 8
4 15 8 15 5 0 6 7 3 15 -4 8 -1 15 5 15 7 0 7 8 1 26 -6 14 -6 23 -1 20 5 -3
12 1 15 10 3 8 10 13 15 9 9 -5 5 40 -5 56 -2 4 1 11 7 14 5 4 8 14 4 22 -4
13 -3 14 10 3 13 -11 14 -10 9 5 -6 14 -4 16 7 10 11 -7 11 -5 -1 10 -14 17
-13 17 10 11 17 -5 20 -4 12 2 -18 12 -17 21 5 39 17 14 17 14 -1 8 -19 -6
-19 -5 -2 14 10 11 15 24 12 29 -3 5 1 9 9 9 10 0 11 -5 4 -18 -6 -12 -5 -20
3 -25 6 -4 8 -3 5 2 -3 6 -2 16 3 24 5 8 5 21 -1 31 -7 14 -5 16 13 11 14 -3
19 -1 14 6 -4 8 0 12 12 12 26 0 58 35 41 46 -8 5 -10 3 -4 -6 6 -9 4 -11 -4
-5 -9 5 -10 10 -2 18 7 7 15 6 27 -4 14 -11 16 -11 10 0 -5 8 -3 17 5 23 11 8
10 9 -3 4 -14 -4 -16 0 -12 24 6 28 -16 67 -30 53 -3 -4 -6 -1 -6 6 0 7 -4 9
-10 6 -5 -3 -10 -1 -10 5 0 7 -6 8 -19 1 -10 -6 -21 -7 -25 -4 -10 10 -46 11
-40 1z m114 -142 c0 -3 -4 -8 -10 -11 -5 -3 -10 -1 -10 4 0 6 5 11 10 11 6 0
10 -2 10 -4z m-166 -287 c-3 -5 -10 -7 -15 -3 -5 3 -7 10 -3 15 3 5 10 7 15 3
5 -3 7 -10 3 -15z m133 -314 c0 -8 -4 -12 -9 -9 -5 3 -6 10 -3 15 9 13 12 11
12 -6z m-502 -283 c-3 -3 -11 0 -18 7 -9 10 -8 11 6 5 10 -3 15 -9 12 -12z
m999 -231 c3 -5 -1 -11 -9 -15 -8 -3 -17 0 -21 6 -4 7 -3 8 4 4 7 -4 12 -2 12
3 0 13 7 14 14 2z"/>
<path d="M2757 3739 c-12 -13 -13 -19 -4 -19 8 0 8 -3 -2 -9 -7 -5 -10 -14 -7
-20 4 -6 3 -17 -1 -23 -8 -13 -15 -14 -75 -20 -16 -1 -28 -7 -28 -13 0 -5 -5
-3 -11 5 -8 11 -12 12 -16 3 -2 -7 -13 -13 -23 -13 -10 0 -20 -8 -22 -17 -6
-25 3 -54 13 -47 5 3 9 0 9 -6 0 -6 11 -8 25 -6 16 3 28 -1 35 -12 9 -14 10
-13 4 7 -4 16 -3 21 5 17 6 -4 9 -24 7 -44 -4 -44 6 -77 24 -77 7 0 15 -7 17
-15 4 -13 3 -13 -6 0 -9 13 -11 13 -11 -2 0 -21 11 -23 28 -6 9 9 12 9 12 0 0
-7 7 -12 15 -12 12 0 10 -8 -9 -37 -25 -35 -25 -37 -6 -50 18 -13 53 -13 66 0
4 4 13 -1 20 -11 9 -11 13 -13 14 -4 0 7 5 10 10 7 6 -3 10 -1 10 5 0 7 -7 10
-15 6 -8 -3 -15 -1 -15 4 0 6 4 10 10 10 5 0 7 7 4 15 -5 11 -2 13 10 9 9 -3
13 -11 9 -18 -3 -6 -2 -8 2 -3 5 4 10 18 12 30 2 17 1 19 -7 7 -5 -8 -10 -10
-10 -4 0 6 10 24 22 40 13 15 17 25 10 20 -16 -9 -16 6 1 23 10 11 10 13 0 7
-7 -4 -13 -2 -13 3 0 6 5 11 12 11 6 0 3 7 -8 15 -13 10 -14 14 -5 15 10 0 11
3 2 14 -9 11 -9 15 1 19 9 4 9 6 -2 6 -9 1 -16 10 -16 20 0 11 5 17 10 14 5
-4 7 0 4 9 -4 9 0 15 8 15 8 0 13 -6 10 -13 -3 -8 0 -16 6 -20 7 -5 8 -2 3 6
-6 10 -4 12 10 6 14 -5 16 -4 7 7 -14 16 -6 28 14 20 8 -3 11 -10 8 -17 -3 -6
1 -3 9 7 9 10 19 19 24 20 4 1 7 6 5 11 -2 5 5 6 14 2 14 -5 15 -4 4 9 -7 8
-9 15 -6 15 4 0 2 9 -4 20 -6 11 -15 18 -20 15 -4 -3 -10 0 -12 7 -3 7 -9 8
-19 2 -8 -5 -21 -9 -29 -9 -8 0 -20 -4 -27 -8 -14 -9 -45 2 -38 13 3 5 1 11
-4 15 -6 3 -7 13 -4 23 3 9 3 14 -1 10 -5 -4 -18 -3 -31 2 -16 6 -26 4 -38
-11z"/>
<path d="M6065 3731 c-3 -6 -14 -8 -25 -6 -11 2 -20 -2 -20 -8 0 -8 -3 -8 -9
2 -6 9 -10 10 -16 2 -4 -7 -16 -9 -27 -5 -14 4 -18 2 -14 -5 4 -7 -1 -11 -12
-11 -11 0 -34 -13 -52 -30 -18 -16 -36 -28 -40 -25 -5 3 -6 -4 -3 -15 3 -11 0
-20 -6 -20 -6 0 -11 -6 -11 -13 0 -7 -10 -24 -22 -37 -13 -14 -22 -26 -20 -27
6 -7 1 -24 -6 -19 -4 2 -9 -5 -9 -17 -1 -12 -7 -23 -12 -25 -5 -2 -7 -10 -4
-19 4 -11 2 -14 -5 -9 -7 4 -14 -3 -18 -19 -3 -14 -10 -25 -16 -25 -5 0 -6 -4
-3 -10 3 -5 1 -10 -5 -10 -6 0 -9 -4 -6 -9 3 -5 -5 -20 -19 -35 -21 -22 -28
-25 -45 -16 -11 6 -24 8 -29 5 -5 -3 -12 1 -14 7 -4 10 -6 10 -6 1 -1 -9 -8
-10 -27 -3 -14 6 -23 6 -20 1 5 -7 -69 -25 -83 -21 -2 1 -7 -2 -10 -7 -3 -4
-17 -14 -30 -21 -19 -11 -22 -11 -17 0 4 7 -1 3 -10 -9 -9 -13 -22 -23 -28
-23 -7 0 -25 -13 -41 -30 -15 -16 -32 -27 -36 -24 -4 2 -10 -5 -14 -16 -3 -11
-11 -20 -17 -20 -6 0 -9 -3 -5 -6 3 -4 -7 -20 -23 -36 -17 -16 -30 -34 -30
-40 0 -6 -3 -8 -7 -5 -3 4 -13 1 -21 -6 -12 -9 -16 -9 -19 1 -3 6 -9 12 -14
12 -6 0 -7 -5 -3 -12 4 -6 3 -8 -4 -4 -6 3 -9 18 -6 31 9 52 12 105 5 100 -4
-2 -8 2 -8 10 0 8 4 15 9 15 5 0 2 7 -6 16 -9 8 -16 22 -16 30 0 8 -4 14 -10
14 -5 0 -6 7 -3 17 4 10 2 14 -4 10 -6 -4 -21 2 -33 13 -13 11 -27 20 -32 20
-5 0 -6 5 -2 12 4 7 3 8 -5 4 -6 -4 -19 -2 -28 6 -12 9 -15 9 -9 1 5 -9 -1
-13 -19 -13 -17 0 -24 4 -19 12 5 7 3 8 -6 3 -6 -4 -32 -9 -57 -12 -25 -2 -56
-11 -69 -19 -13 -9 -29 -12 -36 -8 -7 4 -10 4 -6 -1 6 -7 -51 -51 -59 -47 -6
4 -69 -64 -66 -70 2 -4 -6 -10 -18 -13 -11 -4 -18 -9 -16 -12 8 -7 -25 -43
-35 -37 -4 3 -5 -3 -1 -12 4 -10 0 -20 -11 -26 -9 -5 -14 -13 -11 -19 4 -5 2
-9 -4 -9 -6 0 -7 -7 -4 -17 4 -10 2 -14 -4 -10 -6 4 -10 -1 -10 -11 0 -39 -3
-53 -12 -48 -4 3 -7 -6 -5 -19 1 -14 -3 -25 -9 -25 -7 0 -5 -5 3 -10 10 -7 11
-10 2 -10 -11 0 -10 -28 2 -65 2 -5 7 -20 11 -32 4 -13 11 -23 16 -23 5 0 9
-6 9 -14 0 -8 7 -17 16 -20 9 -4 14 -13 10 -21 -5 -13 -2 -14 15 -4 12 6 19 7
15 1 -3 -5 1 -15 9 -22 11 -9 15 -9 15 -1 0 7 5 9 10 6 6 -4 7 -12 3 -18 -4
-7 0 -6 10 2 14 11 17 11 18 0 1 -8 1 -18 0 -22 -1 -5 3 -5 9 -2 6 4 9 12 7
19 -3 8 7 11 32 10 20 -1 37 -3 39 -4 1 -1 5 -3 10 -4 18 -3 32 -18 26 -28 -4
-7 -2 -8 5 -4 6 4 9 11 6 16 -3 4 -2 10 2 13 5 2 3 2 -4 1 -6 -2 -14 3 -17 11
-3 10 2 12 17 9 11 -2 25 2 30 9 6 8 7 6 3 -5 -3 -10 -1 -18 4 -18 6 0 10 9
10 19 0 11 5 23 12 27 7 5 9 2 6 -8 -4 -8 -2 -21 4 -29 8 -11 9 -10 4 5 -5 13
-2 17 9 13 8 -4 17 -1 21 5 4 6 3 8 -3 5 -6 -4 -14 0 -17 9 -3 8 -2 12 4 9 6
-3 10 -2 10 2 0 5 9 14 21 21 12 8 18 9 15 3 -4 -5 2 -9 12 -8 10 0 19 7 19
14 0 6 -4 10 -9 7 -4 -3 -8 0 -8 7 0 6 8 9 19 6 12 -3 22 1 25 10 3 8 11 11
17 7 8 -4 9 -3 5 5 -6 9 -11 9 -22 0 -8 -6 -17 -9 -21 -5 -3 3 -1 6 6 6 7 0
10 4 7 9 -3 4 4 8 16 7 12 0 23 5 26 13 3 9 0 11 -9 6 -8 -5 -5 1 5 13 11 12
21 20 24 18 2 -3 14 -1 26 4 30 11 61 -11 43 -30 -10 -12 -9 -12 6 0 10 8 15
20 12 29 -4 11 -3 13 4 6 5 -5 13 -23 17 -39 5 -23 4 -27 -7 -22 -8 4 -5 0 5
-8 15 -12 16 -16 5 -16 -9 -1 -6 -5 7 -13 12 -7 19 -18 17 -24 -3 -7 0 -13 7
-13 6 0 8 -5 5 -10 -4 -6 -1 -9 7 -8 7 2 12 -3 10 -10 -1 -8 2 -11 8 -7 5 3
10 1 10 -5 0 -6 5 -8 10 -5 6 3 10 0 10 -8 0 -17 27 -30 35 -17 3 5 12 7 20 3
8 -3 15 1 15 8 0 7 3 9 6 6 4 -4 1 -13 -6 -22 -11 -13 -10 -14 4 -9 10 4 16 1
16 -7 0 -11 2 -11 10 1 6 10 25 15 56 14 26 0 42 2 36 4 -7 2 -12 8 -12 13 0
6 7 6 18 0 14 -7 19 -6 19 4 0 8 -4 12 -8 9 -4 -2 -10 0 -13 5 -9 14 19 7 40
-9 18 -14 18 -14 2 11 -16 26 -16 26 10 21 24 -5 26 -4 13 12 -12 14 -12 16 4
10 13 -5 16 -4 11 4 -5 8 -1 10 10 5 11 -4 13 -8 6 -11 -7 -2 -12 -8 -12 -13
0 -6 4 -8 9 -5 5 3 12 -1 15 -10 4 -9 9 -14 13 -10 4 3 15 -6 25 -21 10 -16
18 -23 18 -18 0 6 -6 17 -12 25 -10 11 -9 11 7 0 11 -8 23 -19 27 -25 5 -6 8
-4 8 4 0 9 6 7 19 -7 10 -12 22 -22 26 -22 5 0 1 8 -8 18 -15 16 -14 17 19 18
24 0 34 -4 34 -15 0 -14 2 -14 9 -1 6 8 7 18 5 22 -3 4 2 5 11 1 13 -4 14 -7
3 -14 -9 -6 -6 -8 9 -6 17 1 19 4 11 14 -6 8 -8 17 -4 20 4 4 11 1 16 -7 7
-10 10 -11 10 -2 0 6 5 12 11 12 5 0 7 -6 3 -12 -5 -10 -3 -10 7 0 11 11 12
14 1 21 -11 7 -10 10 3 14 9 4 13 3 10 -2 -3 -5 -1 -12 5 -16 5 -3 10 2 10 13
0 10 3 21 6 25 10 9 34 -4 27 -16 -3 -6 -1 -7 6 -3 6 4 9 11 6 16 -3 4 2 13
10 20 13 11 14 10 9 -5 -5 -11 -4 -16 3 -12 5 3 19 -4 31 -16 11 -12 27 -26
34 -32 7 -5 22 -17 33 -25 15 -12 17 -12 10 -1 -5 10 -4 12 4 7 6 -4 18 -2 26
4 12 10 13 8 10 -12 -3 -20 -2 -21 7 -7 11 15 13 15 31 -5 10 -11 15 -15 11
-7 -5 10 -3 13 9 8 10 -4 14 -2 11 7 -3 7 2 13 10 13 8 0 14 -3 13 -6 -1 -3 3
-6 8 -6 6 0 9 5 7 11 -3 16 31 11 36 -4 2 -7 9 -12 15 -12 8 0 7 4 -1 12 -7 7
-12 15 -12 19 0 8 34 20 68 25 13 1 31 9 40 16 12 10 14 10 8 1 -4 -7 -3 -13
2 -13 6 0 13 7 16 16 4 11 10 13 19 7 6 -5 18 -8 25 -7 6 1 17 2 22 3 6 0 10
6 10 12 0 8 -4 8 -13 1 -8 -7 -18 -8 -27 -1 -12 8 -11 9 5 7 12 -2 19 2 17 10
-2 10 2 10 17 0 11 -7 17 -16 14 -22 -3 -5 -1 -6 6 -2 9 6 9 11 -1 24 -7 9 -8
13 -3 10 12 -7 37 17 27 26 -3 4 1 4 11 0 10 -3 17 -1 17 6 0 6 5 8 11 4 8 -4
2 -12 -15 -21 -26 -13 -27 -33 -3 -33 7 0 6 4 -3 10 -14 9 -7 12 16 9 13 -2
23 26 18 45 -5 16 -2 18 18 13 14 -4 28 -3 32 1 4 4 12 7 17 7 5 0 9 3 9 8 0
4 0 10 0 14 0 3 -9 -2 -19 -11 -13 -12 -21 -14 -26 -6 -4 6 -1 9 7 8 7 -2 12
2 11 8 -1 7 9 11 26 10 20 -1 27 2 24 11 -3 7 -10 10 -16 6 -6 -3 -7 -1 -3 6
4 6 16 9 25 6 11 -3 18 0 18 9 0 8 -6 12 -15 8 -10 -3 -13 -1 -8 6 4 7 16 12
27 12 10 0 19 5 19 11 0 5 -4 8 -9 4 -5 -3 -13 0 -17 6 -4 8 -3 9 4 5 7 -4 12
-2 12 3 0 15 18 14 23 -1 2 -7 2 1 -1 17 -3 17 -5 38 -4 49 0 10 -6 25 -14 33
-7 8 -14 11 -14 7 0 -3 -6 -1 -14 5 -9 8 -16 8 -20 2 -4 -6 -14 -7 -24 -4 -9
3 -14 3 -10 -2 8 -9 -15 -35 -31 -35 -6 0 -10 -3 -10 -7 3 -17 -1 -36 -7 -31
-3 3 -21 -10 -40 -30 -19 -19 -34 -29 -34 -21 0 8 -6 5 -15 -8 -8 -12 -22 -20
-30 -19 -23 3 -27 12 -10 26 21 17 19 35 -2 19 -17 -13 -17 -12 -1 6 10 13 16
37 15 67 0 27 3 51 6 55 11 11 8 25 -4 17 -8 -4 -8 0 0 15 12 21 30 24 43 6 5
-6 8 -5 8 3 0 7 -7 15 -15 18 -12 5 -13 10 -4 20 6 8 17 14 23 14 6 0 4 -4 -4
-10 -8 -5 -12 -11 -9 -15 3 -3 14 5 25 17 10 12 13 18 7 14 -8 -4 -13 -1 -13
9 0 10 5 14 13 9 10 -6 10 -4 0 7 -7 7 -13 19 -13 27 0 17 -28 45 -49 49 -35
6 -161 9 -161 3 0 -3 -10 -7 -22 -7 -13 -1 -24 -7 -26 -13 -2 -5 -10 -10 -18
-10 -9 0 -12 -5 -8 -12 5 -8 2 -9 -9 -5 -9 3 -16 3 -14 -2 1 -4 -11 -21 -28
-37 -37 -37 -85 -96 -85 -107 0 -5 -4 -5 -10 -2 -5 3 -10 1 -10 -4 0 -20 -74
-103 -84 -94 -4 4 -4 0 0 -10 4 -11 0 -19 -10 -23 -9 -3 -14 -10 -11 -14 3 -5
-4 -11 -15 -15 -11 -3 -20 -10 -20 -14 0 -8 -70 -37 -82 -33 -4 1 -8 -2 -8 -8
0 -5 -9 -2 -19 7 -14 12 -17 21 -11 33 6 11 5 21 -3 30 -10 10 -8 10 11 0 21
-10 23 -10 14 7 -8 13 -5 24 9 42 10 13 16 27 13 32 -3 5 3 6 13 2 15 -6 16
-4 5 9 -10 12 -10 18 -1 23 6 4 15 1 20 -6 5 -8 9 -9 9 -3 0 5 -5 15 -10 20
-7 7 -5 17 6 30 15 18 15 18 4 -3 -8 -18 -8 -22 4 -17 9 4 13 16 11 34 -2 16
0 32 6 35 5 4 7 11 3 16 -3 5 -2 9 3 8 4 -1 19 -1 33 0 19 1 22 3 10 10 -8 6
-18 7 -24 4 -5 -3 -6 -1 -2 5 4 7 14 12 22 12 8 0 14 5 14 11 0 5 6 7 13 3 9
-6 9 -5 0 7 -17 22 -10 50 18 65 13 7 18 13 11 14 -10 0 -10 3 0 14 7 8 18 11
23 8 6 -3 4 2 -4 11 -14 18 -2 24 15 7 7 -7 11 -6 11 4 0 8 -4 13 -8 10 -4 -2
-7 4 -6 15 0 11 5 17 9 15 4 -3 15 -1 24 4 15 8 15 10 0 15 -11 5 -15 3 -10
-5 4 -7 3 -8 -4 -4 -17 10 9 48 28 41 8 -4 11 -3 7 1 -4 4 -1 14 6 23 11 14
10 15 -8 1 -18 -14 -19 -13 -8 1 7 9 9 19 5 24 -4 4 3 2 16 -4 21 -11 23 -11
14 6 -11 20 -5 43 10 43 7 0 7 -5 -1 -13 -8 -10 -7 -14 4 -14 8 0 13 3 10 5
-3 3 3 11 13 19 15 11 15 12 1 7 -10 -3 -20 -1 -24 5 -3 6 -2 11 4 11 6 0 8 7
4 16 -3 9 0 20 8 25 10 6 10 9 2 9 -7 0 -13 9 -13 19 0 11 -9 23 -20 26 -11 4
-18 11 -15 16 4 5 4 9 1 9 -3 0 -7 -4 -11 -9z m-130 -442 c-4 -5 -12 -9 -18
-8 -9 0 -8 2 1 6 6 2 9 10 6 15 -4 7 -2 8 5 4 6 -4 9 -12 6 -17z m-1027 -160
c0 -15 8 -41 16 -58 19 -36 20 -45 4 -35 -7 4 -8 3 -4 -5 4 -6 0 -18 -8 -27
-9 -8 -16 -13 -16 -10 0 3 -9 -3 -21 -15 -12 -12 -29 -19 -40 -16 -10 3 -16 1
-13 -4 3 -6 -9 -9 -30 -7 -19 1 -34 7 -33 12 1 6 -3 10 -9 9 -6 -1 -11 4 -11
12 0 8 4 12 9 9 13 -8 9 11 -4 25 -11 10 -10 11 5 6 9 -4 17 -12 17 -18 0 -6
3 -7 6 -4 4 4 1 14 -7 24 -12 15 -12 16 3 10 11 -4 17 -2 15 5 -1 7 3 12 10
13 6 0 14 3 18 7 9 8 -16 5 -32 -5 -6 -4 -15 -2 -19 4 -4 8 -3 9 4 5 7 -4 12
-1 12 8 0 10 6 13 18 9 15 -6 16 -5 2 12 -9 11 -10 16 -2 11 8 -5 12 -1 13 11
0 10 3 13 5 6 3 -7 12 -9 20 -6 13 5 13 8 2 15 -9 7 -7 8 9 5 13 -3 26 -1 29
4 3 5 10 6 16 3 7 -4 8 -2 4 5 -6 9 -11 9 -22 0 -10 -8 -14 -8 -14 0 0 6 5 11
11 11 5 0 7 5 4 11 -4 6 1 5 12 -2 12 -7 20 -24 21 -40z m652 6 c5 3 12 0 16
-6 4 -7 3 -9 -4 -5 -6 3 -13 2 -17 -4 -3 -5 -1 -10 5 -10 6 0 2 -13 -9 -29
-11 -15 -17 -32 -13 -36 4 -5 -1 -5 -10 -2 -10 3 -17 3 -17 -1 3 -21 -2 -32
-13 -26 -6 4 -8 3 -4 -4 8 -13 -47 -72 -67 -72 -7 0 -19 6 -26 13 -10 10 -11
9 -6 -5 11 -28 -9 -21 -22 7 -7 17 -8 23 0 18 6 -4 8 0 5 9 -4 8 -1 15 7 15 7
0 11 -7 8 -16 -4 -14 -3 -14 5 -1 6 8 8 19 4 25 -10 15 -11 36 -2 30 4 -3 11
2 14 10 4 13 10 14 26 5 16 -9 18 -8 14 5 -4 8 -11 15 -17 15 -6 0 -7 3 -4 6
4 4 14 1 24 -7 13 -11 15 -11 9 -1 -6 10 -2 13 14 10 13 -2 24 3 26 10 1 7 0
8 -3 2 -2 -5 -9 -8 -14 -4 -18 11 -9 21 19 20 17 -1 26 -6 24 -14 -1 -8 2 -11
8 -7 8 5 5 13 -6 26 -16 18 -17 19 -1 13 12 -4 16 -2 14 7 -2 8 -2 11 0 6 3
-4 9 -5 13 -2z m617 -78 c-1 -5 -10 -11 -18 -13 -7 -1 -23 -5 -34 -9 -17 -7
-17 -5 3 9 12 10 27 14 34 10 8 -5 9 -2 5 10 -4 11 -3 15 4 11 5 -4 8 -12 6
-18z m-4 -30 c7 3 5 -2 -4 -13 -9 -10 -20 -32 -23 -49 -6 -28 -56 -67 -56 -43
0 5 -4 7 -8 4 -13 -8 -8 40 6 56 6 8 8 19 4 24 -4 4 1 2 11 -5 15 -12 17 -12
12 1 -4 9 3 19 17 25 13 6 25 6 26 2 2 -5 9 -6 15 -2z m-803 -301 c0 -2 -7 -7
-16 -10 -8 -3 -12 -2 -9 4 6 10 25 14 25 6z"/>
<path d="M5416 3034 c-8 -21 -8 -24 5 -24 5 0 8 4 5 9 -4 5 -1 11 6 13 8 3 9
6 1 11 -6 4 -14 0 -17 -9z"/>
<path d="M6085 2970 c-3 -6 1 -7 9 -4 18 7 21 14 7 14 -6 0 -13 -4 -16 -10z"/>
<path d="M2396 3661 c-5 -7 -17 -11 -27 -8 -11 3 -19 1 -19 -3 0 -5 -8 -7 -17
-5 -10 1 -24 -2 -30 -8 -8 -6 -13 -6 -13 0 0 5 -7 10 -15 10 -8 0 -12 -4 -9
-9 3 -4 -9 -6 -25 -4 -17 2 -31 0 -31 -5 0 -4 -9 -6 -20 -4 -11 2 -22 -1 -26
-6 -4 -6 -10 -6 -19 1 -9 8 -14 5 -18 -11 -3 -11 -10 -18 -15 -15 -5 3 -7 -6
-4 -19 2 -14 11 -25 19 -25 8 0 12 -4 9 -8 -2 -4 4 -9 15 -9 12 -1 17 3 13 10
-5 9 -4 9 6 0 7 -6 18 -9 25 -7 7 3 16 1 20 -5 4 -7 0 -8 -10 -5 -10 4 -15 2
-13 -7 2 -8 -2 -13 -9 -12 -12 3 -11 -46 1 -66 4 -5 1 -13 -4 -16 -7 -5 -5
-12 7 -21 14 -11 15 -13 3 -14 -13 0 -13 -1 0 -10 13 -8 13 -10 1 -10 -12 0
-12 -3 -3 -12 17 -17 15 -31 -3 -25 -8 4 -17 1 -21 -5 -4 -7 -3 -8 4 -4 7 4
12 5 12 1 0 -3 -11 -10 -25 -15 -22 -8 -24 -12 -13 -35 11 -25 21 -28 91 -28
33 0 41 -6 39 -28 -1 -3 5 -6 13 -6 8 0 11 5 7 11 -3 6 -7 18 -9 26 -1 12 1
11 11 -2 16 -22 27 -23 19 -3 -3 9 -2 15 3 14 5 -1 12 0 17 1 21 7 34 3 50
-15 10 -12 16 -14 15 -6 -2 7 3 16 10 18 6 3 10 -1 9 -9 -2 -7 -2 -10 0 -6 2
4 10 6 16 4 7 -1 9 -1 5 1 -5 3 -8 12 -8 20 0 14 3 13 21 -3 22 -19 22 -19 11
1 -10 19 -8 21 26 20 20 0 43 -4 51 -9 10 -6 12 -5 9 5 -3 8 2 20 11 27 13 11
13 12 1 6 -10 -5 -8 1 5 15 11 12 14 21 8 19 -6 -2 -20 8 -32 21 -12 13 -21
19 -21 13 0 -7 -7 -12 -16 -12 -8 0 -12 4 -9 10 3 6 -1 7 -9 4 -9 -3 -16 -9
-16 -14 0 -4 -13 -7 -30 -6 -16 1 -30 5 -29 10 0 5 -5 13 -13 17 -11 7 -11 9
1 9 7 0 11 6 8 15 -7 17 9 30 18 15 4 -6 15 -4 29 5 13 9 32 13 42 9 13 -4 15
-3 6 3 -8 6 -11 21 -8 36 3 19 0 27 -10 27 -9 0 -12 5 -8 12 5 8 2 9 -10 5
-10 -4 -24 1 -36 13 -26 26 -25 40 2 35 12 -3 27 0 35 6 7 6 21 8 30 5 10 -4
15 -4 11 -1 -3 4 -2 20 2 35 5 16 5 29 2 29 -19 -3 -33 2 -27 10 6 11 -44 9
-62 -2 -6 -4 -13 -2 -15 5 -3 9 -6 9 -12 -1z m1 -87 c-3 -3 3 -15 14 -27 21
-23 24 -37 9 -37 -5 0 -10 6 -10 13 0 8 -4 7 -10 -3 -8 -13 -10 -12 -10 3 0
11 -4 15 -12 11 -7 -5 -8 -3 -2 7 5 8 9 17 10 22 3 15 4 17 11 17 3 0 4 -3 0
-6z m-125 -35 c8 -8 14 -22 12 -32 -1 -9 3 -17 9 -17 5 0 8 -3 4 -6 -3 -3 -2
-16 3 -29 5 -14 5 -26 -3 -34 -6 -6 -7 -11 -1 -11 5 0 11 -13 12 -30 1 -16 -2
-30 -8 -30 -10 0 -13 9 -13 43 0 9 -3 17 -7 17 -7 0 -10 22 -12 82 0 16 -5 25
-10 22 -6 -4 -7 2 -3 17 7 21 6 22 -7 11 -13 -10 -17 -10 -21 1 -7 18 26 15
45 -4z"/>
<path d="M2276 3467 c3 -10 9 -15 12 -12 3 3 0 11 -7 18 -10 9 -11 8 -5 -6z"/>
<path d="M1852 3615 c0 -11 -7 -36 -15 -55 -9 -19 -16 -29 -17 -22 0 6 -3 11
-7 11 -21 -3 -34 2 -31 13 7 21 -23 48 -42 38 -10 -5 -20 -7 -24 -5 -3 3 -4 2
-1 -1 2 -4 -3 -13 -11 -22 -13 -12 -13 -16 -2 -23 9 -6 9 -9 1 -9 -7 0 -10
-10 -7 -26 3 -14 1 -23 -4 -20 -5 3 -8 -8 -7 -24 1 -17 0 -30 -4 -30 -4 0 -12
-14 -18 -31 -10 -26 -9 -34 2 -46 8 -8 15 -19 15 -25 0 -5 8 -7 17 -4 10 4 14
4 11 0 -4 -4 -3 -16 3 -27 8 -15 8 -18 -1 -12 -9 6 -9 2 -1 -14 7 -12 9 -26 6
-31 -3 -6 -1 -10 5 -10 8 0 7 -6 -1 -21 -8 -15 -8 -19 0 -15 6 4 11 0 11 -8 0
-9 5 -16 11 -16 5 0 7 -5 4 -10 -4 -7 7 -9 29 -6 20 2 36 0 36 -5 0 -5 5 -9
10 -9 6 0 3 11 -6 25 -15 23 -15 24 8 20 19 -4 21 -2 8 8 -20 16 -24 38 -5 31
8 -4 12 -10 9 -15 -3 -5 0 -9 5 -9 6 0 11 -7 11 -15 0 -9 6 -12 17 -8 10 4 14
2 10 -4 -4 -6 0 -13 8 -16 10 -4 12 -1 8 10 -4 10 -2 14 4 10 5 -4 19 0 29 8
17 12 20 11 29 -6 10 -18 11 -18 24 4 13 19 12 21 -1 10 -12 -10 -15 -10 -15
1 0 8 8 13 17 11 9 -2 36 18 63 45 26 27 47 43 47 37 0 -8 3 -7 9 2 11 17 3
50 -18 75 -9 11 -10 16 -3 12 7 -4 15 -1 18 9 5 13 9 13 23 3 13 -10 14 -10 4
2 -7 8 -13 22 -13 32 0 10 -5 18 -11 18 -5 0 -7 5 -3 12 5 8 2 9 -9 5 -12 -4
-17 -1 -18 11 0 14 -2 14 -9 -3 -7 -17 -9 -14 -9 13 -1 24 2 31 12 26 7 -5 6
0 -3 11 -8 10 -10 16 -5 13 6 -4 17 -3 25 3 12 7 12 9 -4 9 -16 0 -17 2 -5 17
10 12 10 14 1 9 -7 -4 -14 -1 -18 8 -4 11 -15 13 -42 10 -65 -9 -91 -10 -86
-3 2 4 -7 14 -21 23 -16 11 -26 12 -31 5 -4 -8 -9 -7 -15 2 -6 10 -8 8 -7 -6z
m180 -137 c-8 -8 -9 -4 -5 13 4 13 8 18 11 10 2 -7 -1 -18 -6 -23z"/>
<path d="M2979 3608 c-5 -18 -6 -38 -1 -34 7 8 12 36 6 36 -2 0 -4 -1 -5 -2z"/>
<path d="M4700 3570 c-24 -18 -24 -19 -3 -17 12 0 20 4 17 8 -2 4 2 9 8 12 7
2 11 7 8 10 -3 3 -16 -3 -30 -13z"/>
<path d="M2467 3573 c-10 -10 -8 -23 4 -23 5 0 8 4 5 9 -4 5 0 12 6 14 7 3 8
6 2 6 -6 1 -14 -2 -17 -6z"/>
<path d="M2430 3560 c0 -5 5 -10 11 -10 5 0 7 5 4 10 -3 6 -8 10 -11 10 -2 0
-4 -4 -4 -10z"/>
<path d="M2496 3562 c-2 -4 4 -8 14 -8 10 0 16 4 14 8 -3 4 -9 8 -14 8 -5 0
-11 -4 -14 -8z"/>
<path d="M4240 3550 c-9 -6 -10 -10 -3 -10 6 0 15 5 18 10 8 12 4 12 -15 0z"/>
<path d="M2473 3425 c0 -8 4 -12 9 -9 5 3 6 10 3 15 -9 13 -12 11 -12 -6z"/>
<path d="M2415 3400 c-1 -27 14 -34 32 -16 4 4 1 6 -7 4 -9 -2 -14 3 -12 14 1
9 -1 19 -5 21 -5 3 -8 -7 -8 -23z"/>
<path d="M2446 3413 c-6 -14 -5 -15 5 -6 7 7 10 15 7 18 -3 3 -9 -2 -12 -12z"/>
<path d="M3965 3401 c-3 -5 0 -13 6 -17 7 -4 9 -3 5 4 -3 5 0 13 6 15 9 4 10
6 1 6 -6 1 -14 -3 -18 -8z"/>
<path d="M2095 3381 c-3 -5 -2 -12 3 -15 5 -3 9 1 9 9 0 17 -3 19 -12 6z"/>
<path d="M4525 3350 c-4 -6 -4 -14 -1 -17 3 -4 6 -1 6 7 0 10 3 10 14 1 11 -9
16 -9 22 1 4 7 4 10 -1 6 -4 -4 -14 -3 -21 3 -8 7 -14 7 -19 -1z"/>
<path d="M5960 3340 c-9 -6 -10 -10 -3 -10 6 0 15 5 18 10 8 12 4 12 -15 0z"/>
<path d="M3951 3304 c0 -11 3 -14 6 -6 3 7 2 16 -1 19 -3 4 -6 -2 -5 -13z"/>
<path d="M2758 3292 c-11 -15 -11 -15 2 -6 8 6 23 10 33 8 11 -1 16 0 13 4
-13 12 -36 10 -48 -6z"/>
<path d="M4249 3293 c-13 -16 -12 -17 4 -4 9 7 17 15 17 17 0 8 -8 3 -21 -13z"/>
<path d="M2031 3235 c-22 -24 -41 -50 -41 -57 0 -7 9 1 19 18 19 31 38 49 54
49 4 0 7 4 6 10 0 5 8 12 18 16 15 6 15 8 2 8 -9 1 -35 -19 -58 -44z"/>
<path d="M2470 3275 c0 -2 6 -8 13 -14 10 -8 14 -7 14 2 0 8 -6 14 -14 14 -7
0 -13 -1 -13 -2z"/>
<path d="M2510 3259 c0 -5 5 -7 10 -4 6 3 10 8 10 11 0 2 -4 4 -10 4 -5 0 -10
-5 -10 -11z"/>
<path d="M2339 3258 c-6 -12 -4 -46 2 -42 4 2 5 12 2 22 -6 15 -5 16 13 2 18
-14 18 -14 5 3 -13 16 -19 20 -22 15z"/>
<path d="M4205 3240 c-3 -5 -1 -10 4 -10 6 0 11 5 11 10 0 6 -2 10 -4 10 -3 0
-8 -4 -11 -10z"/>
<path d="M2235 3229 c-4 -5 -4 -13 -1 -16 3 -4 6 0 6 8 0 11 2 11 10 -1 6 -9
10 -10 10 -3 0 17 -17 25 -25 12z"/>
<path d="M4478 3223 c7 -3 16 -2 19 1 4 3 -2 6 -13 5 -11 0 -14 -3 -6 -6z"/>
<path d="M5892 3217 c-8 -10 -6 -13 11 -14 12 0 16 1 9 4 -6 3 -10 9 -6 14 8
14 -2 11 -14 -4z"/>
<path d="M2025 3200 c-3 -6 1 -7 9 -4 18 7 21 14 7 14 -6 0 -13 -4 -16 -10z"/>
<path d="M1922 3181 c-11 -6 -9 -9 5 -13 12 -3 20 0 20 8 0 16 -6 17 -25 5z"/>
<path d="M6426 3177 c3 -10 9 -15 12 -12 3 3 0 11 -7 18 -10 9 -11 8 -5 -6z"/>
<path d="M4145 3160 c-3 -5 1 -10 10 -10 9 0 13 5 10 10 -3 6 -8 10 -10 10 -2
0 -7 -4 -10 -10z"/>
<path d="M5793 3037 c-3 -6 -1 -7 5 -3 5 3 12 1 14 -6 3 -8 6 -7 10 3 7 17
-19 22 -29 6z"/>
<path d="M3707 2983 c3 -7 6 -13 8 -13 2 0 5 6 8 13 3 8 -1 14 -8 14 -7 0 -11
-6 -8 -14z"/>
<path d="M4435 2980 c-16 -7 -17 -9 -3 -9 9 -1 20 4 23 9 7 11 7 11 -20 0z"/>
<path d="M5035 2900 c-3 -5 -1 -10 4 -10 6 0 11 5 11 10 0 6 -2 10 -4 10 -3 0
-8 -4 -11 -10z"/>
<path d="M6527 2865 c3 -8 9 -12 14 -9 12 7 11 11 -5 17 -10 4 -13 1 -9 -8z"/>
<path d="M4915 2780 c-3 -5 -1 -10 4 -10 6 0 11 5 11 10 0 6 -2 10 -4 10 -3 0
-8 -4 -11 -10z"/>
<path d="M6240 2745 c-7 -9 -8 -15 -2 -15 5 0 12 7 16 15 3 8 4 15 2 15 -2 0
-9 -7 -16 -15z"/>
<path d="M3571 2704 c0 -11 3 -14 6 -6 3 7 2 16 -1 19 -3 4 -6 -2 -5 -13z"/>
<path d="M4703 2707 c0 -8 6 -14 14 -14 9 0 10 4 2 14 -6 7 -12 13 -14 13 -1
0 -2 -6 -2 -13z"/>
<path d="M4730 2716 c0 -2 7 -9 15 -16 13 -11 14 -10 9 4 -5 14 -24 23 -24 12z"/>
<path d="M5690 2716 c0 -2 7 -9 15 -16 13 -11 14 -10 9 4 -5 14 -24 23 -24 12z"/>
<path d="M5386 2702 c-3 -5 1 -9 9 -9 8 0 12 4 9 9 -3 4 -7 8 -9 8 -2 0 -6 -4
-9 -8z"/>
<path d="M3405 2540 c3 -5 8 -10 11 -10 2 0 4 5 4 10 0 6 -5 10 -11 10 -5 0
-7 -4 -4 -10z"/>
<path d="M3323 2533 c-15 -5 -17 -23 -4 -23 5 0 11 7 15 15 3 8 4 15 3 14 -1
0 -8 -3 -14 -6z"/>
<path d="M3214 2519 c-3 -6 -2 -15 3 -20 5 -5 9 -1 9 11 0 23 -2 24 -12 9z"/>
<path d="M4508 2456 c5 -18 7 -19 10 -3 3 15 6 16 20 6 14 -11 15 -11 5 1 -21
23 -41 21 -35 -4z"/>
</g>
</svg>
